SplineFontDB: 3.0
FontName: ph0
FullName: ph0
FamilyName: ph0
Weight: Book
Copyright: qopirait font77
Version: 0.01
ItalicAngle: 0
UnderlinePosition: -193
UnderlineWidth: 20
Ascent: 800
Descent: 200
InvalidEm: 0
sfntRevision: 0x00000000
LayerCount: 2
Layer: 0 1 "Back" 1
Layer: 1 1 "Fore" 0
XUID: [1021 542 582384140 16314931]
StyleMap: 0x0040
FSType: 0
OS2Version: 3
OS2_WeightWidthSlopeOnly: 0
OS2_UseTypoMetrics: 0
CreationTime: 1304432203
ModificationTime: 1465065944
PfmFamily: 17
TTFWeight: 400
TTFWidth: 5
LineGap: 0
VLineGap: 0
Panose: 2 11 5 9 3 6 2 3 2 4
OS2TypoAscent: 693
OS2TypoAOffset: 0
OS2TypoDescent: -165
OS2TypoDOffset: 0
OS2TypoLinegap: 49
OS2WinAscent: 830
OS2WinAOffset: 0
OS2WinDescent: 170
OS2WinDOffset: 0
HheadAscent: 830
HheadAOffset: 0
HheadDescent: -170
HheadDOffset: 0
OS2SubXSize: 700
OS2SubYSize: 650
OS2SubXOff: 0
OS2SubYOff: 140
OS2SupXSize: 700
OS2SupYSize: 650
OS2SupXOff: 0
OS2SupYOff: 477
OS2StrikeYSize: 50
OS2StrikeYPos: 250
OS2CapHeight: 693
OS2XHeight: 520
OS2Vendor: 'DAMA'
OS2CodePages: 2000009f.56010000
OS2UnicodeRanges: e00002ff.5000205b.00000000.00000000
Lookup: 6 0 0 "'ss02' Style Set 2 lookup 0" { "'ss02' Style Set 2 lookup 0 subtable"  } ['afrc' ('cyrl' <'BGR ' 'MKD ' 'SRB ' 'dflt' > 'grek' <'dflt' > 'latn' <'AZE ' 'CRT ' 'MOL ' 'ROM ' 'TRK ' 'dflt' > ) 'ss02' ('cyrl' <'BGR ' 'MKD ' 'SRB ' 'dflt' > 'grek' <'dflt' > 'latn' <'AZE ' 'CRT ' 'MOL ' 'ROM ' 'TRK ' 'dflt' > ) ]
Lookup: 1 0 0 "'case' Case-Sensitive Forms lookup 1" { "'case' Case-Sensitive Forms lookup 1 subtable"  } ['case' ('cyrl' <'BGR ' 'MKD ' 'SRB ' 'dflt' > 'grek' <'dflt' > 'latn' <'AZE ' 'CRT ' 'TRK ' 'dflt' > ) ]
MarkAttachClasses: 1
DEI: 91125
ChainSub2: coverage "'ss02' Style Set 2 lookup 0 subtable" 0 0 0 1
 1 1 0
  Coverage: 0 
  BCoverage: 0 
 0
EndFPST
TtTable: prep
NPUSHB
 14
 159
 163
 175
 163
 2
 64
 157
 26
 33
 70
 155
 121
 42
 31
PUSHW_1
 -64
NPUSHB
 12
 154
 12
 18
 70
 151
 121
 72
 31
 149
 115
 42
 31
PUSHW_1
 -64
NPUSHB
 84
 148
 12
 18
 70
 146

StartChar: .notdef
Encoding: 65536 -1 0
Width: 500
Flags: W
LayerCount: 2
Fore
SplineSet
33 0 m 1,0,-1
 33 666 l 1,1,-1
 298 666 l 1,2,-1
 298 0 l 1,3,-1
 33 0 l 1,0,-1
66 33 m 1,4,-1
 265 33 l 1,5,-1
 265 633 l 1,6,-1
 66 633 l 1,7,-1
 66 33 l 1,4,-1
EndSplineSet
Validated: 1
EndChar

StartChar: exclam
Encoding: 33 33 4
Width: 500
GlyphClass: 2
Flags: W
LayerCount: 2
Fore
SplineSet
293 451 m 2,0,1
 293 414 293 414 292 383 c 128,-1,2
 291 352 291 352 288.5 324 c 128,-1,3
 286 296 286 296 283 268.5 c 128,-1,4
 280 241 280 241 277 211 c 1,5,-1
 220 211 l 1,6,7
 217 241 217 241 214 268.5 c 128,-1,8
 211 296 211 296 208.5 324 c 128,-1,9
 206 352 206 352 205 383 c 128,-1,10
 204 414 204 414 204 451 c 2,11,-1
 204 619 l 1,12,-1
 293 619 l 1,13,-1
 293 451 l 2,0,1
248 -12 m 0,14,15
 221 -12 221 -12 201 6.5 c 128,-1,16
 181 25 181 25 181 56 c 256,17,18
 181 87 181 87 201 105.5 c 128,-1,19
 221 124 221 124 248 124 c 0,20,21
 276 124 276 124 295.5 105.5 c 128,-1,22
 315 87 315 87 315 56 c 256,23,24
 315 25 315 25 295.5 6.5 c 128,-1,25
 276 -12 276 -12 248 -12 c 0,14,15
EndSplineSet
Validated: 1
EndChar

StartChar: quotedbl
Encoding: 34 34 5
Width: 500
GlyphClass: 2
Flags: W
LayerCount: 2
Fore
SplineSet
206 679 m 1,0,-1
 206 634 l 2,1,2
 206 590 206 590 201 533.5 c 128,-1,3
 196 477 196 477 188 430 c 1,4,-1
 146 430 l 1,5,6
 139 477 139 477 134 533.5 c 128,-1,7
 129 590 129 590 129 635 c 2,8,-1
 129 679 l 1,9,-1
 206 679 l 1,0,-1
371 679 m 1,10,-1
 371 634 l 2,11,12
 371 590 371 590 366 533.5 c 128,-1,13
 361 477 361 477 354 430 c 1,14,-1
 312 430 l 1,15,16
 304 477 304 477 299 533.5 c 128,-1,17
 294 590 294 590 294 635 c 2,18,-1
 294 679 l 1,19,-1
 371 679 l 1,10,-1
EndSplineSet
Validated: 1
EndChar

StartChar: numbersign
Encoding: 35 35 6
Width: 500
GlyphClass: 2
Flags: W
LayerCount: 2
Fore
SplineSet
321 0 m 1,0,-1
 246 0 l 1,1,-1
 277 163 l 1,2,-1
 166 163 l 1,3,-1
 135 0 l 1,4,-1
 60 0 l 1,5,-1
 91 163 l 1,6,-1
 27 163 l 1,7,-1
 27 230 l 1,8,-1
 104 230 l 1,9,-1
 134 389 l 1,10,-1
 27 389 l 1,11,-1
 27 455 l 1,12,-1
 148 455 l 1,13,-1
 179 619 l 1,14,-1
 254 619 l 1,15,-1
 223 455 l 1,16,-1
 334 455 l 1,17,-1
 364 619 l 1,18,-1
 439 619 l 1,19,-1
 409 455 l 1,20,-1
 473 455 l 1,21,-1
 473 389 l 1,22,-1
 396 389 l 1,23,-1
 365 230 l 1,24,-1
 473 230 l 1,25,-1
 473 163 l 1,26,-1
 352 163 l 1,27,-1
 321 0 l 1,0,-1
320 389 m 1,28,-1
 210 389 l 1,29,-1
 179 230 l 1,30,-1
 289 230 l 1,31,-1
 320 389 l 1,28,-1
EndSplineSet
Validated: 1
EndChar

StartChar: dollar
Encoding: 36 36 7
Width: 500
GlyphClass: 2
Flags: W
LayerCount: 2
Fore
SplineSet
233 85 m 0,0,1
 269 85 269 85 293.5 90.5 c 128,-1,2
 318 96 318 96 332 106.5 c 128,-1,3
 346 117 346 117 352 131.5 c 128,-1,4
 358 146 358 146 358 163 c 0,5,6
 358 188 358 188 346 205.5 c 128,-1,7
 334 223 334 223 313.5 236.5 c 128,-1,8
 293 250 293 250 267 260.5 c 128,-1,9
 241 271 241 271 213 281 c 0,10,11
 186 291 186 291 159.5 303 c 128,-1,12
 133 315 133 315 112.5 332.5 c 128,-1,13
 92 350 92 350 79 374.5 c 128,-1,14
 66 399 66 399 66 435 c 0,15,16
 66 499 66 499 104 539 c 128,-1,17
 142 579 142 579 214 590 c 1,18,-1
 214 693 l 1,19,-1
 288 693 l 1,20,-1
 288 593 l 1,21,22
 328 591 328 591 361.5 583.5 c 128,-1,23
 395 576 395 576 415 568 c 1,24,-1
 398 498 l 1,25,26
 377 506 377 506 345 514.5 c 128,-1,27
 313 523 313 523 264 523 c 0,28,29
 210 523 210 523 181.5 503 c 128,-1,30
 153 483 153 483 153 445 c 0,31,32
 153 424 153 424 161.5 410 c 128,-1,33
 170 396 170 396 186 385 c 128,-1,34
 202 374 202 374 223.5 365 c 128,-1,35
 245 356 245 356 272 346 c 0,36,37
 306 333 306 333 338 318.5 c 128,-1,38
 370 304 370 304 394 284 c 128,-1,39
 418 264 418 264 432.5 236 c 128,-1,40
 447 208 447 208 447 169 c 0,41,42
 447 110 447 110 408 69 c 128,-1,43
 369 28 369 28 288 18 c 1,44,-1
 288 -97 l 1,45,-1
 214 -97 l 1,46,-1
 214 15 l 1,47,48
 151 17 151 17 112 29 c 128,-1,49
 73 41 73 41 54 52 c 1,50,-1
 76 121 l 1,51,52
 103 108 103 108 140 96.5 c 128,-1,53
 177 85 177 85 233 85 c 0,0,1
EndSplineSet
Validated: 1
EndChar

StartChar: percent
Encoding: 37 37 8
Width: 500
GlyphClass: 2
Flags: W
LayerCount: 2
Fore
SplineSet
95 0 m 1,0,-1
 25 0 l 1,1,-1
 404 619 l 1,2,-1
 474 619 l 1,3,-1
 95 0 l 1,0,-1
18 477 m 256,4,5
 18 553 18 553 47 592.5 c 128,-1,6
 76 632 76 632 127 632 c 256,7,8
 178 632 178 632 207 592.5 c 128,-1,9
 236 553 236 553 236 477 c 256,10,11
 236 401 236 401 207 361 c 128,-1,12
 178 321 178 321 127 321 c 256,13,14
 76 321 76 321 47 361 c 128,-1,15
 18 401 18 401 18 477 c 256,4,5
174 477 m 256,16,17
 174 522 174 522 162 551 c 128,-1,18
 150 580 150 580 127 580 c 256,19,20
 104 580 104 580 91.5 551 c 128,-1,21
 79 522 79 522 79 477 c 256,22,23
 79 432 79 432 91.5 403 c 128,-1,24
 104 374 104 374 127 374 c 256,25,26
 150 374 150 374 162 403 c 128,-1,27
 174 432 174 432 174 477 c 256,16,17
265 142 m 256,28,29
 265 218 265 218 293.5 257.5 c 128,-1,30
 322 297 322 297 373 297 c 256,31,32
 424 297 424 297 453 257.5 c 128,-1,33
 482 218 482 218 482 142 c 256,34,35
 482 66 482 66 453 26.5 c 128,-1,36
 424 -13 424 -13 373 -13 c 256,37,38
 322 -13 322 -13 293.5 26.5 c 128,-1,39
 265 66 265 66 265 142 c 256,28,29
421 142 m 256,40,41
 421 187 421 187 408.5 216 c 128,-1,42
 396 245 396 245 373 245 c 256,43,44
 350 245 350 245 338 216 c 128,-1,45
 326 187 326 187 326 142 c 256,46,47
 326 97 326 97 338 68 c 128,-1,48
 350 39 350 39 373 39 c 256,49,50
 396 39 396 39 408.5 68 c 128,-1,51
 421 97 421 97 421 142 c 256,40,41
EndSplineSet
Validated: 1
EndChar

StartChar: ampersand
Encoding: 38 38 9
Width: 500
GlyphClass: 2
Flags: W
LayerCount: 2
Fore
SplineSet
272 283 m 2,0,1
 289 263 289 263 307.5 242.5 c 128,-1,2
 326 222 326 222 345 199 c 1,3,4
 353 227 353 227 359 260 c 128,-1,5
 365 293 365 293 368 333 c 1,6,-1
 437 324 l 1,7,8
 431 266 431 266 419.5 220.5 c 128,-1,9
 408 175 408 175 391 138 c 1,10,11
 414 106 414 106 435 72 c 128,-1,12
 456 38 456 38 473 0 c 1,13,-1
 386 0 l 1,14,15
 369 35 369 35 348 67 c 1,16,17
 316 27 316 27 276.5 9.5 c 128,-1,18
 237 -8 237 -8 194 -8 c 0,19,20
 156 -8 156 -8 126 4.5 c 128,-1,21
 96 17 96 17 75 39 c 128,-1,22
 54 61 54 61 42.5 90 c 128,-1,23
 31 119 31 119 31 151 c 0,24,25
 31 198 31 198 55.5 246 c 128,-1,26
 80 294 80 294 133 335 c 1,27,28
 107 370 107 370 91 406 c 128,-1,29
 75 442 75 442 75 480 c 0,30,31
 75 519 75 519 87.5 548 c 128,-1,32
 100 577 100 577 121 595.5 c 128,-1,33
 142 614 142 614 169.5 623.5 c 128,-1,34
 197 633 197 633 226 633 c 0,35,36
 252 633 252 633 277 625 c 128,-1,37
 302 617 302 617 321 600.5 c 128,-1,38
 340 584 340 584 351.5 560 c 128,-1,39
 363 536 363 536 363 505 c 0,40,41
 363 459 363 459 333 410.5 c 128,-1,42
 303 362 303 362 238 321 c 1,43,-1
 272 283 l 2,0,1
172 285 m 1,44,45
 143 259 143 259 128.5 225 c 128,-1,46
 114 191 114 191 114 159 c 0,47,48
 114 120 114 120 134 94.5 c 128,-1,49
 154 69 154 69 183 62.5 c 128,-1,50
 212 56 212 56 246 70.5 c 128,-1,51
 280 85 280 85 308 125 c 1,52,53
 275 170 275 170 239.5 208.5 c 128,-1,54
 204 247 204 247 172 285 c 1,44,45
288 496 m 0,55,56
 288 532 288 532 268.5 550 c 128,-1,57
 249 568 249 568 224 568 c 0,58,59
 198 568 198 568 175.5 547.5 c 128,-1,60
 153 527 153 527 153 486 c 0,61,62
 153 457 153 457 162 432 c 128,-1,63
 171 407 171 407 200 369 c 1,64,65
 248 399 248 399 268 433 c 128,-1,66
 288 467 288 467 288 496 c 0,55,56
EndSplineSet
Validated: 33
EndChar

StartChar: quotesingle
Encoding: 39 39 10
Width: 500
GlyphClass: 2
Flags: W
LayerCount: 2
Fore
SplineSet
293 679 m 1,0,-1
 293 634 l 2,1,2
 293 612 293 612 291.5 583.5 c 128,-1,3
 290 555 290 555 287.5 524.5 c 128,-1,4
 285 494 285 494 282 464.5 c 128,-1,5
 279 435 279 435 275 412 c 1,6,-1
 224 412 l 1,7,8
 220 435 220 435 217 464.5 c 128,-1,9
 214 494 214 494 211.5 524.5 c 128,-1,10
 209 555 209 555 207.5 584 c 128,-1,11
 206 613 206 613 206 635 c 2,12,-1
 206 679 l 1,13,-1
 293 679 l 1,0,-1
EndSplineSet
Validated: 1
EndChar

StartChar: parenleft
Encoding: 40 40 11
Width: 500
GlyphClass: 2
Flags: W
LayerCount: 2
Fore
SplineSet
384 641 m 1,0,1
 291 569 291 569 242 475 c 128,-1,2
 193 381 193 381 193 270 c 0,3,4
 193 214 193 214 204.5 164 c 128,-1,5
 216 114 216 114 239.5 68 c 128,-1,6
 263 22 263 22 299.5 -21 c 128,-1,7
 336 -64 336 -64 386 -107 c 1,8,-1
 341 -167 l 1,9,10
 226 -82 226 -82 169.5 30.5 c 128,-1,11
 113 143 113 143 113 268 c 0,12,13
 113 392 113 392 170 505 c 128,-1,14
 227 618 227 618 341 701 c 1,15,-1
 385 641 l 1,16,-1
 384 641 l 1,0,1
EndSplineSet
Validated: 1
EndChar

StartChar: parenright
Encoding: 41 41 12
Width: 500
GlyphClass: 2
Flags: W
LayerCount: 2
Fore
SplineSet
115 -107 m 1,0,1
 208 -35 208 -35 257.5 59 c 128,-1,2
 307 153 307 153 307 264 c 0,3,4
 307 320 307 320 295.5 370 c 128,-1,5
 284 420 284 420 260 466 c 128,-1,6
 236 512 236 512 199.5 555 c 128,-1,7
 163 598 163 598 113 641 c 1,8,-1
 158 701 l 1,9,10
 273 616 273 616 329.5 503.5 c 128,-1,11
 386 391 386 391 386 266 c 0,12,13
 386 204 386 204 371.5 144 c 128,-1,14
 357 84 357 84 328.5 28.5 c 128,-1,15
 300 -27 300 -27 257.5 -76.5 c 128,-1,16
 215 -126 215 -126 158 -167 c 1,17,-1
 114 -107 l 1,18,-1
 115 -107 l 1,0,1
EndSplineSet
Validated: 1
EndChar

StartChar: asterisk
Encoding: 42 42 13
Width: 500
GlyphClass: 2
Flags: W
LayerCount: 2
Fore
SplineSet
287 417 m 1,0,1
 314 392 314 392 343 364.5 c 128,-1,2
 372 337 372 337 392 306 c 2,3,-1
 396 301 l 1,4,-1
 326 250 l 1,5,-1
 321 256 l 2,6,7
 300 286 300 286 283 321.5 c 128,-1,8
 266 357 266 357 251 390 c 1,9,10
 235 357 235 357 218 321.5 c 128,-1,11
 201 286 201 286 178 256 c 1,12,-1
 173 251 l 1,13,-1
 104 301 l 1,14,-1
 109 307 l 2,15,16
 131 338 131 338 159 365 c 128,-1,17
 187 392 187 392 214 417 c 1,18,19
 177 422 177 422 138 427.5 c 128,-1,20
 99 433 99 433 64 445 c 2,21,-1
 57 447 l 1,22,-1
 84 529 l 1,23,-1
 91 526 l 2,24,25
 126 512 126 512 161.5 495 c 128,-1,26
 197 478 197 478 229 460 c 1,27,28
 221 496 221 496 214.5 535 c 128,-1,29
 208 574 208 574 208 612 c 2,30,-1
 208 619 l 1,31,-1
 294 619 l 1,32,-1
 294 612 l 2,33,34
 294 574 294 574 287.5 535 c 128,-1,35
 281 496 281 496 273 460 c 1,36,37
 305 479 305 479 340 495.5 c 128,-1,38
 375 512 375 512 410 525 c 2,39,-1
 417 528 l 1,40,-1
 443 446 l 1,41,-1
 437 444 l 2,42,43
 401 433 401 433 362.5 427 c 128,-1,44
 324 421 324 421 287 417 c 1,0,1
EndSplineSet
Validated: 1
EndChar

StartChar: plus
Encoding: 43 43 14
Width: 500
GlyphClass: 2
Flags: W
LayerCount: 2
Fore
SplineSet
46 298 m 1,0,-1
 214 298 l 1,1,-1
 214 482 l 1,2,-1
 286 482 l 1,3,-1
 286 298 l 1,4,-1
 455 298 l 1,5,-1
 455 228 l 1,6,-1
 286 228 l 1,7,-1
 286 43 l 1,8,-1
 214 43 l 1,9,-1
 214 228 l 1,10,-1
 46 228 l 1,11,-1
 46 298 l 1,0,-1
EndSplineSet
Validated: 1
EndChar

StartChar: comma
Encoding: 44 44 15
Width: 500
GlyphClass: 2
Flags: W
LayerCount: 2
Fore
SplineSet
149 -79 m 1,0,1
 167 -75 167 -75 184.5 -71 c 128,-1,2
 202 -67 202 -67 217 -59.5 c 128,-1,3
 232 -52 232 -52 244 -40.5 c 128,-1,4
 256 -29 256 -29 263 -9 c 1,5,6
 231 -6 231 -6 216.5 15.5 c 128,-1,7
 202 37 202 37 202 58 c 0,8,9
 202 98 202 98 224.5 118.5 c 128,-1,10
 247 139 247 139 276 139 c 0,11,12
 313 139 313 139 332 112.5 c 128,-1,13
 351 86 351 86 351 48 c 0,14,15
 351 19 351 19 339.5 -12.5 c 128,-1,16
 328 -44 328 -44 304.5 -71.5 c 128,-1,17
 281 -99 281 -99 246 -118.5 c 128,-1,18
 211 -138 211 -138 163 -144 c 1,19,-1
 149 -79 l 1,0,1
EndSplineSet
Validated: 1
EndChar

StartChar: hyphen
Encoding: 45 45 16
Width: 500
GlyphClass: 2
Flags: W
LayerCount: 2
Fore
SplineSet
140 293 m 1,0,-1
 360 293 l 1,1,-1
 360 215 l 1,2,-1
 140 215 l 1,3,-1
 140 293 l 1,0,-1
EndSplineSet
Validated: 1
EndChar

StartChar: period
Encoding: 46 46 17
Width: 500
GlyphClass: 2
Flags: W
LayerCount: 2
Fore
SplineSet
324 64 m 0,0,1
 324 34 324 34 304 11 c 128,-1,2
 284 -12 284 -12 251 -12 c 0,3,4
 217 -12 217 -12 197 11 c 128,-1,5
 177 34 177 34 177 64 c 0,6,7
 177 95 177 95 197 118 c 128,-1,8
 217 141 217 141 251 141 c 0,9,10
 284 141 284 141 304 118 c 128,-1,11
 324 95 324 95 324 64 c 0,0,1
EndSplineSet
Validated: 1
EndChar

StartChar: slash
Encoding: 47 47 18
Width: 500
GlyphClass: 2
Flags: W
LayerCount: 2
Fore
SplineSet
154 -165 m 1,0,-1
 69 -165 l 1,1,-1
 348 699 l 1,2,-1
 431 699 l 1,3,-1
 154 -165 l 1,0,-1
EndSplineSet
Validated: 1
EndChar

StartChar: zero
Encoding: 48 48 19
Width: 500
GlyphClass: 2
Flags: W
LayerCount: 2
Fore
SplineSet
308 321 m 256,0,1
 308 295 308 295 292.5 276 c 128,-1,2
 277 257 277 257 252 257 c 0,3,4
 226 257 226 257 210 276 c 128,-1,5
 194 295 194 295 194 321 c 256,6,7
 194 347 194 347 210 367 c 128,-1,8
 226 387 226 387 252 387 c 0,9,10
 277 387 277 387 292.5 367 c 128,-1,11
 308 347 308 347 308 321 c 256,0,1
46 310 m 256,12,13
 46 466 46 466 99.5 549.5 c 128,-1,14
 153 633 153 633 250 633 c 0,15,16
 348 633 348 633 401 549.5 c 128,-1,17
 454 466 454 466 454 310 c 256,18,19
 454 154 454 154 401 70.5 c 128,-1,20
 348 -13 348 -13 250 -13 c 0,21,22
 153 -13 153 -13 99.5 70.5 c 128,-1,23
 46 154 46 154 46 310 c 256,12,13
370 310 m 256,24,25
 370 361 370 361 364 406.5 c 128,-1,26
 358 452 358 452 344 486 c 128,-1,27
 330 520 330 520 307 540 c 128,-1,28
 284 560 284 560 250 560 c 256,29,30
 216 560 216 560 193 540 c 128,-1,31
 170 520 170 520 156 486 c 128,-1,32
 142 452 142 452 136 406.5 c 128,-1,33
 130 361 130 361 130 310 c 256,34,35
 130 259 130 259 136 213.5 c 128,-1,36
 142 168 142 168 156 134 c 128,-1,37
 170 100 170 100 193 80 c 128,-1,38
 216 60 216 60 250 60 c 256,39,40
 284 60 284 60 307 80 c 128,-1,41
 330 100 330 100 344 134 c 128,-1,42
 358 168 358 168 364 213.5 c 128,-1,43
 370 259 370 259 370 310 c 256,24,25
EndSplineSet
Validated: 1
EndChar

StartChar: one
Encoding: 49 49 20
Width: 500
GlyphClass: 2
Flags: W
LayerCount: 2
Fore
SplineSet
75 491 m 1,0,1
 126 511 126 511 174 541.5 c 128,-1,2
 222 572 222 572 263 619 c 1,3,-1
 321 619 l 1,4,-1
 321 70 l 1,5,-1
 438 70 l 1,6,-1
 438 0 l 1,7,-1
 105 0 l 1,8,-1
 105 70 l 1,9,-1
 239 70 l 1,10,-1
 239 504 l 1,11,12
 228 494 228 494 212.5 483.5 c 128,-1,13
 197 473 197 473 178.5 463 c 128,-1,14
 160 453 160 453 140 444 c 128,-1,15
 120 435 120 435 101 429 c 1,16,-1
 75 491 l 1,0,1
EndSplineSet
Validated: 1
EndChar

StartChar: two
Encoding: 50 50 21
Width: 500
GlyphClass: 2
Flags: W
LayerCount: 2
Fore
SplineSet
420 461 m 0,0,1
 420 429 420 429 407.5 399 c 128,-1,2
 395 369 395 369 374.5 340 c 128,-1,3
 354 311 354 311 328 283 c 128,-1,4
 302 255 302 255 275 228 c 0,5,6
 260 213 260 213 240 192 c 128,-1,7
 220 171 220 171 202 149 c 128,-1,8
 184 127 184 127 172 106 c 128,-1,9
 160 85 160 85 160 70 c 1,10,-1
 445 70 l 1,11,-1
 445 0 l 1,12,-1
 70 0 l 1,13,14
 69 5 69 5 69 10.5 c 128,-1,15
 69 16 69 16 69 21 c 0,16,17
 69 63 69 63 83 99 c 128,-1,18
 97 135 97 135 119 167 c 128,-1,19
 141 199 141 199 168.5 227.5 c 128,-1,20
 196 256 196 256 223 283 c 0,21,22
 245 305 245 305 265.5 326 c 128,-1,23
 286 347 286 347 301.5 368 c 128,-1,24
 317 389 317 389 326.5 411.5 c 128,-1,25
 336 434 336 434 336 458 c 0,26,27
 336 485 336 485 327.5 504 c 128,-1,28
 319 523 319 523 304.5 535.5 c 128,-1,29
 290 548 290 548 271 554 c 128,-1,30
 252 560 252 560 230 560 c 0,31,32
 204 560 204 560 182.5 553 c 128,-1,33
 161 546 161 546 144.5 536 c 128,-1,34
 128 526 128 526 116 516.5 c 128,-1,35
 104 507 104 507 98 501 c 1,36,-1
 57 559 l 1,37,38
 65 568 65 568 81 581 c 128,-1,39
 97 594 97 594 119.5 605.5 c 128,-1,40
 142 617 142 617 170 625 c 128,-1,41
 198 633 198 633 230 633 c 0,42,43
 327 633 327 633 373.5 588.5 c 128,-1,44
 420 544 420 544 420 461 c 0,0,1
EndSplineSet
Validated: 1
EndChar

StartChar: three
Encoding: 51 51 22
Width: 500
GlyphClass: 2
Flags: W
LayerCount: 2
Fore
SplineSet
212 60 m 0,0,1
 291 60 291 60 324.5 91.5 c 128,-1,2
 358 123 358 123 358 176 c 0,3,4
 358 210 358 210 344 233 c 128,-1,5
 330 256 330 256 307 270 c 128,-1,6
 284 284 284 284 254 290 c 128,-1,7
 224 296 224 296 191 296 c 2,8,-1
 170 296 l 1,9,-1
 170 363 l 1,10,-1
 199 363 l 2,11,12
 221 363 221 363 244.5 367.5 c 128,-1,13
 268 372 268 372 287.5 383.5 c 128,-1,14
 307 395 307 395 319 415 c 128,-1,15
 331 435 331 435 331 466 c 0,16,17
 331 517 331 517 299.5 538.5 c 128,-1,18
 268 560 268 560 226 560 c 0,19,20
 183 560 183 560 153 547.5 c 128,-1,21
 123 535 123 535 103 522 c 1,22,-1
 71 585 l 1,23,24
 92 600 92 600 134.5 616.5 c 128,-1,25
 177 633 177 633 229 633 c 0,26,27
 278 633 278 633 313 621 c 128,-1,28
 348 609 348 609 370.5 587 c 128,-1,29
 393 565 393 565 404 535.5 c 128,-1,30
 415 506 415 506 415 471 c 0,31,32
 415 422 415 422 389.5 388 c 128,-1,33
 364 354 364 354 324 336 c 1,34,35
 372 322 372 322 407 281.5 c 128,-1,36
 442 241 442 241 442 174 c 0,37,38
 442 134 442 134 428.5 99.5 c 128,-1,39
 415 65 415 65 387.5 40 c 128,-1,40
 360 15 360 15 316.5 1 c 128,-1,41
 273 -13 273 -13 213 -13 c 0,42,43
 190 -13 190 -13 165.5 -9.5 c 128,-1,44
 141 -6 141 -6 120 -0.5 c 128,-1,45
 99 5 99 5 82.5 10.5 c 128,-1,46
 66 16 66 16 59 19 c 1,47,-1
 75 90 l 1,48,49
 91 82 91 82 126 71 c 128,-1,50
 161 60 161 60 212 60 c 0,0,1
EndSplineSet
Validated: 1
EndChar

StartChar: four
Encoding: 52 52 23
Width: 500
GlyphClass: 2
Flags: W
LayerCount: 2
Fore
SplineSet
36 214 m 1,0,1
 53 254 53 254 82.5 306 c 128,-1,2
 112 358 112 358 149 413.5 c 128,-1,3
 186 469 186 469 228 522.5 c 128,-1,4
 270 576 270 576 313 619 c 1,5,-1
 393 619 l 1,6,-1
 393 226 l 1,7,-1
 466 226 l 1,8,-1
 466 158 l 1,9,-1
 393 158 l 1,10,-1
 393 0 l 1,11,-1
 313 0 l 1,12,-1
 313 158 l 1,13,-1
 36 158 l 1,14,-1
 36 214 l 1,0,1
313 521 m 1,15,16
 286 492 286 492 258.5 457 c 128,-1,17
 231 422 231 422 205 383.5 c 128,-1,18
 179 345 179 345 156.5 305 c 128,-1,19
 134 265 134 265 116 226 c 1,20,-1
 313 226 l 1,21,-1
 313 521 l 1,15,16
EndSplineSet
Validated: 1
EndChar

StartChar: five
Encoding: 53 53 24
Width: 500
GlyphClass: 2
Flags: W
LayerCount: 2
Fore
SplineSet
186 380 m 1,0,1
 320 375 320 375 381 321 c 128,-1,2
 442 267 442 267 442 176 c 0,3,4
 442 135 442 135 429 100 c 128,-1,5
 416 65 416 65 388.5 40 c 128,-1,6
 361 15 361 15 318.5 1 c 128,-1,7
 276 -13 276 -13 218 -13 c 0,8,9
 194 -13 194 -13 170.5 -9.5 c 128,-1,10
 147 -6 147 -6 126 -1 c 128,-1,11
 105 4 105 4 89 9.5 c 128,-1,12
 73 15 73 15 66 19 c 1,13,-1
 82 90 l 1,14,15
 98 82 98 82 131.5 71 c 128,-1,16
 165 60 165 60 216 60 c 0,17,18
 256 60 256 60 283 69 c 128,-1,19
 310 78 310 78 326.5 93.5 c 128,-1,20
 343 109 343 109 350.5 129 c 128,-1,21
 358 149 358 149 358 171 c 0,22,23
 358 205 358 205 346.5 231.5 c 128,-1,24
 335 258 335 258 306.5 276 c 128,-1,25
 278 294 278 294 228.5 303.5 c 128,-1,26
 179 313 179 313 104 313 c 1,27,28
 110 357 110 357 113.5 395.5 c 128,-1,29
 117 434 117 434 119.5 470.5 c 128,-1,30
 122 507 122 507 123.5 543 c 128,-1,31
 125 579 125 579 127 619 c 1,32,-1
 425 619 l 1,33,-1
 425 549 l 1,34,-1
 199 549 l 1,35,36
 198 535 198 535 196.5 512.5 c 128,-1,37
 195 490 195 490 193 465 c 128,-1,38
 191 440 191 440 189 417 c 128,-1,39
 187 394 187 394 186 380 c 1,0,1
EndSplineSet
Validated: 1
EndChar

StartChar: six
Encoding: 54 54 25
Width: 500
GlyphClass: 2
Flags: W
LayerCount: 2
Fore
SplineSet
54 248 m 0,0,1
 54 338 54 338 78.5 407.5 c 128,-1,2
 103 477 103 477 148.5 524 c 128,-1,3
 194 571 194 571 259 596 c 128,-1,4
 324 621 324 621 406 622 c 1,5,-1
 413 552 l 1,6,7
 360 551 360 551 316.5 540.5 c 128,-1,8
 273 530 273 530 239 506.5 c 128,-1,9
 205 483 205 483 182 446 c 128,-1,10
 159 409 159 409 147 355 c 1,11,12
 171 366 171 366 199.5 373 c 128,-1,13
 228 380 228 380 260 380 c 0,14,15
 312 380 312 380 348.5 364 c 128,-1,16
 385 348 385 348 407 321.5 c 128,-1,17
 429 295 429 295 439 260 c 128,-1,18
 449 225 449 225 449 188 c 0,19,20
 449 154 449 154 438 118.5 c 128,-1,21
 427 83 427 83 404 53.5 c 128,-1,22
 381 24 381 24 345 5.5 c 128,-1,23
 309 -13 309 -13 259 -13 c 0,24,25
 156 -13 156 -13 105 56 c 128,-1,26
 54 125 54 125 54 248 c 0,0,1
251 312 m 0,27,28
 219 312 219 312 192.5 306 c 128,-1,29
 166 300 166 300 139 288 c 1,30,31
 138 278 138 278 138 268.5 c 128,-1,32
 138 259 138 259 138 248 c 0,33,34
 138 209 138 209 143.5 174.5 c 128,-1,35
 149 140 149 140 162.5 113.5 c 128,-1,36
 176 87 176 87 199 71.5 c 128,-1,37
 222 56 222 56 258 56 c 0,38,39
 288 56 288 56 308 68.5 c 128,-1,40
 328 81 328 81 341 100 c 128,-1,41
 354 119 354 119 359.5 142.5 c 128,-1,42
 365 166 365 166 365 187 c 0,43,44
 365 248 365 248 337.5 280 c 128,-1,45
 310 312 310 312 251 312 c 0,27,28
EndSplineSet
Validated: 1
EndChar

StartChar: seven
Encoding: 55 55 26
Width: 500
GlyphClass: 2
Flags: W
LayerCount: 2
Fore
SplineSet
155 0 m 1,0,1
 160 71 160 71 180.5 150.5 c 128,-1,2
 201 230 201 230 230 304.5 c 128,-1,3
 259 379 259 379 294 442.5 c 128,-1,4
 329 506 329 506 363 547 c 1,5,-1
 63 547 l 1,6,-1
 63 619 l 1,7,-1
 455 619 l 1,8,-1
 455 550 l 1,9,10
 425 515 425 515 390 456 c 128,-1,11
 355 397 355 397 323.5 323.5 c 128,-1,12
 292 250 292 250 269 166.5 c 128,-1,13
 246 83 246 83 240 0 c 1,14,-1
 155 0 l 1,0,1
EndSplineSet
Validated: 1
EndChar

StartChar: eight
Encoding: 56 56 27
Width: 500
GlyphClass: 2
Flags: W
LayerCount: 2
Fore
SplineSet
449 161 m 0,0,1
 449 83 449 83 399.5 35 c 128,-1,2
 350 -13 350 -13 249 -13 c 0,3,4
 191 -13 191 -13 153 2.5 c 128,-1,5
 115 18 115 18 92.5 42.5 c 128,-1,6
 70 67 70 67 60.5 97 c 128,-1,7
 51 127 51 127 51 156 c 0,8,9
 51 209 51 209 80 250 c 128,-1,10
 109 291 109 291 149 316 c 1,11,12
 64 364 64 364 64 463 c 0,13,14
 64 497 64 497 77 528 c 128,-1,15
 90 559 90 559 114 582 c 128,-1,16
 138 605 138 605 172.5 619 c 128,-1,17
 207 633 207 633 250 633 c 0,18,19
 300 633 300 633 335.5 618 c 128,-1,20
 371 603 371 603 393 579.5 c 128,-1,21
 415 556 415 556 425 527.5 c 128,-1,22
 435 499 435 499 435 472 c 0,23,24
 435 419 435 419 408 380.5 c 128,-1,25
 381 342 381 342 346 319 c 1,26,27
 449 270 449 270 449 161 c 0,0,1
131 155 m 0,28,29
 131 139 131 139 137 121.5 c 128,-1,30
 143 104 143 104 157 89 c 128,-1,31
 171 74 171 74 194 64.5 c 128,-1,32
 217 55 217 55 250 55 c 0,33,34
 281 55 281 55 303.5 63.5 c 128,-1,35
 326 72 326 72 340.5 86.5 c 128,-1,36
 355 101 355 101 362 119 c 128,-1,37
 369 137 369 137 369 155 c 0,38,39
 369 212 369 212 328 242.5 c 128,-1,40
 287 273 287 273 215 289 c 1,41,42
 175 267 175 267 153 234 c 128,-1,43
 131 201 131 201 131 155 c 0,28,29
355 472 m 0,44,45
 355 485 355 485 349 501.5 c 128,-1,46
 343 518 343 518 330.5 531.5 c 128,-1,47
 318 545 318 545 298 554.5 c 128,-1,48
 278 564 278 564 250 564 c 0,49,50
 221 564 221 564 201.5 555 c 128,-1,51
 182 546 182 546 169 532.5 c 128,-1,52
 156 519 156 519 150.5 502.5 c 128,-1,53
 145 486 145 486 145 470 c 0,54,55
 145 429 145 429 174.5 393.5 c 128,-1,56
 204 358 204 358 272 342 c 1,57,58
 310 364 310 364 332.5 394 c 128,-1,59
 355 424 355 424 355 472 c 0,44,45
EndSplineSet
Validated: 1
EndChar

StartChar: nine
Encoding: 57 57 28
Width: 500
GlyphClass: 2
Flags: W
LayerCount: 2
Fore
SplineSet
447 371 m 0,0,1
 447 186 447 186 357 92.5 c 128,-1,2
 267 -1 267 -1 86 -2 c 1,3,-1
 83 68 l 1,4,5
 195 68 195 68 263.5 112.5 c 128,-1,6
 332 157 332 157 354 266 c 1,7,8
 330 255 330 255 301 248.5 c 128,-1,9
 272 242 272 242 240 242 c 0,10,11
 187 242 187 242 151 257.5 c 128,-1,12
 115 273 115 273 93 299.5 c 128,-1,13
 71 326 71 326 61 360 c 128,-1,14
 51 394 51 394 51 432 c 0,15,16
 51 466 51 466 62 501.5 c 128,-1,17
 73 537 73 537 96 566 c 128,-1,18
 119 595 119 595 155 614 c 128,-1,19
 191 633 191 633 241 633 c 0,20,21
 343 633 343 633 395 563 c 128,-1,22
 447 493 447 493 447 371 c 0,0,1
249 310 m 0,23,24
 281 310 281 310 308.5 316 c 128,-1,25
 336 322 336 322 362 333 c 1,26,27
 363 343 363 343 363 352 c 128,-1,28
 363 361 363 361 363 371 c 0,29,30
 363 410 363 410 357.5 445 c 128,-1,31
 352 480 352 480 338.5 506 c 128,-1,32
 325 532 325 532 301.5 547.5 c 128,-1,33
 278 563 278 563 242 563 c 0,34,35
 212 563 212 563 192 550.5 c 128,-1,36
 172 538 172 538 159 519.5 c 128,-1,37
 146 501 146 501 140.5 478 c 128,-1,38
 135 455 135 455 135 434 c 0,39,40
 135 373 135 373 162.5 341.5 c 128,-1,41
 190 310 190 310 249 310 c 0,23,24
EndSplineSet
Validated: 1
EndChar

StartChar: less
Encoding: 60 60 31
Width: 500
GlyphClass: 2
Flags: W
LayerCount: 2
Fore
SplineSet
141 255 m 1,0,-1
 458 124 l 1,1,-1
 435 55 l 1,2,-1
 49 219 l 1,3,-1
 49 290 l 1,4,-1
 435 454 l 1,5,-1
 458 385 l 1,6,-1
 141 255 l 1,0,-1
EndSplineSet
Validated: 1
EndChar

StartChar: equal
Encoding: 61 61 32
Width: 500
GlyphClass: 2
Flags: W
LayerCount: 2
Fore
SplineSet
46 203 m 1,0,-1
 455 203 l 1,1,-1
 455 132 l 1,2,-1
 46 132 l 1,3,-1
 46 203 l 1,0,-1
46 393 m 1,4,-1
 455 393 l 1,5,-1
 455 322 l 1,6,-1
 46 322 l 1,7,-1
 46 393 l 1,4,-1
EndSplineSet
Validated: 1
EndChar

StartChar: greater
Encoding: 62 62 33
Width: 500
GlyphClass: 2
Flags: W
LayerCount: 2
Fore
SplineSet
49 385 m 1,0,-1
 72 454 l 1,1,-1
 458 290 l 1,2,-1
 458 219 l 1,3,-1
 72 55 l 1,4,-1
 49 124 l 1,5,-1
 366 255 l 1,6,-1
 49 385 l 1,0,-1
EndSplineSet
Validated: 1
EndChar

StartChar: question
Encoding: 63 63 34
Width: 500
GlyphClass: 2
Flags: W
LayerCount: 2
Fore
SplineSet
185 211 m 1,0,-1
 184 230 l 2,1,2
 184 273 184 273 206 304.5 c 128,-1,3
 228 336 228 336 254.5 363 c 128,-1,4
 281 390 281 390 303 417 c 128,-1,5
 325 444 325 444 325 479 c 0,6,7
 325 517 325 517 301 540 c 128,-1,8
 277 563 277 563 230 563 c 0,9,10
 201 563 201 563 172.5 556 c 128,-1,11
 144 549 144 549 115 533 c 1,12,-1
 92 597 l 1,13,14
 122 614 122 614 160 623.5 c 128,-1,15
 198 633 198 633 241 633 c 0,16,17
 292 633 292 633 324.5 619 c 128,-1,18
 357 605 357 605 376 583.5 c 128,-1,19
 395 562 395 562 402.5 536 c 128,-1,20
 410 510 410 510 410 486 c 0,21,22
 410 456 410 456 398.5 432.5 c 128,-1,23
 387 409 387 409 370 388 c 128,-1,24
 353 367 353 367 333 348 c 128,-1,25
 313 329 313 329 296 308.5 c 128,-1,26
 279 288 279 288 267.5 264 c 128,-1,27
 256 240 256 240 256 211 c 1,28,-1
 185 211 l 1,0,-1
228 -12 m 0,29,30
 200 -12 200 -12 180.5 6.5 c 128,-1,31
 161 25 161 25 161 56 c 256,32,33
 161 87 161 87 180.5 105.5 c 128,-1,34
 200 124 200 124 228 124 c 0,35,36
 255 124 255 124 275 105.5 c 128,-1,37
 295 87 295 87 295 56 c 256,38,39
 295 25 295 25 275 6.5 c 128,-1,40
 255 -12 255 -12 228 -12 c 0,29,30
EndSplineSet
Validated: 1
EndChar

StartChar: at
Encoding: 64 64 35
Width: 500
GlyphClass: 2
Flags: W
LayerCount: 2
Fore
SplineSet
468 63 m 1,0,1
 438 51 438 51 407 46.5 c 128,-1,2
 376 42 376 42 350 42 c 0,3,4
 315 42 315 42 285 53.5 c 128,-1,5
 255 65 255 65 232.5 89 c 128,-1,6
 210 113 210 113 197.5 150.5 c 128,-1,7
 185 188 185 188 185 240 c 0,8,9
 185 333 185 333 233 381.5 c 128,-1,10
 281 430 281 430 358 430 c 0,11,12
 366 430 366 430 373.5 429.5 c 128,-1,13
 381 429 381 429 389 428 c 1,14,15
 389 491 389 491 363 528 c 128,-1,16
 337 565 337 565 280 565 c 0,17,18
 245 565 245 565 216 548 c 128,-1,19
 187 531 187 531 166 493.5 c 128,-1,20
 145 456 145 456 133 397 c 128,-1,21
 121 338 121 338 121 254 c 0,22,23
 121 191 121 191 133 132.5 c 128,-1,24
 145 74 145 74 170.5 30 c 128,-1,25
 196 -14 196 -14 235.5 -40.5 c 128,-1,26
 275 -67 275 -67 330 -67 c 0,27,28
 370 -67 370 -67 413 -54 c 1,29,-1
 421 -121 l 1,30,31
 368 -135 368 -135 323 -135 c 0,32,33
 250 -135 250 -135 196.5 -102.5 c 128,-1,34
 143 -70 143 -70 108.5 -17 c 128,-1,35
 74 36 74 36 57 104 c 128,-1,36
 40 172 40 172 40 243 c 0,37,38
 40 346 40 346 58.5 420 c 128,-1,39
 77 494 77 494 109.5 541 c 128,-1,40
 142 588 142 588 185 610.5 c 128,-1,41
 228 633 228 633 278 633 c 0,42,43
 366 633 366 633 417 573.5 c 128,-1,44
 468 514 468 514 468 408 c 2,45,-1
 468 63 l 1,0,1
265 240 m 0,46,47
 265 220 265 220 267.5 197 c 128,-1,48
 270 174 270 174 279 154.5 c 128,-1,49
 288 135 288 135 304.5 121.5 c 128,-1,50
 321 108 321 108 350 108 c 0,51,52
 358 108 358 108 368 109 c 128,-1,53
 378 110 378 110 389 113 c 1,54,-1
 389 358 l 1,55,56
 380 361 380 361 371.5 362 c 128,-1,57
 363 363 363 363 355 363 c 0,58,59
 312 363 312 363 288.5 329.5 c 128,-1,60
 265 296 265 296 265 240 c 0,46,47
EndSplineSet
Validated: 1
EndChar

StartChar: A
Encoding: 65 65 36
Width: 500
GlyphClass: 2
Flags: W
LayerCount: 2
Fore
SplineSet
374.884765625 0 m 1,0,-1
 344.1328125 144.702148438 l 1,1,-1
 141.916015625 144.702148438 l 1,2,-1
 112.095703125 0 l 1,3,-1
 40.341796875 0 l 1,4,5
 55.2529296875 59.15234375 55.2529296875 59.15234375 72.9575195312 127.862792969 c 128,-1,6
 90.662109375 196.573242188 90.662109375 196.573242188 111.163085938 268.013671875 c 128,-1,7
 131.665039062 339.452148438 131.665039062 339.452148438 154.49609375 411.799804688 c 128,-1,8
 177.327148438 484.1484375 177.327148438 484.1484375 203.419921875 550.58203125 c 1,9,-1
 289.151367188 550.58203125 l 1,10,11
 314.3125 484.1484375 314.3125 484.1484375 336.678710938 411.799804688 c 128,-1,12
 359.04296875 339.452148438 359.04296875 339.452148438 379.078125 268.013671875 c 128,-1,13
 399.114257812 196.573242188 399.114257812 196.573242188 416.819824219 127.862792969 c 128,-1,14
 434.525390625 59.15234375 434.525390625 59.15234375 449.434570312 0 c 1,15,-1
 374.884765625 0 l 1,0,-1
243.491210938 486.87890625 m 1,16,17
 224.852539062 431.3671875 224.852539062 431.3671875 201.555664062 357.197265625 c 128,-1,18
 178.258789062 283.029296875 178.258789062 283.029296875 157.756835938 205.674804688 c 1,19,-1
 327.358398438 205.674804688 l 1,20,21
 308.721679688 284.850585938 308.721679688 284.850585938 285.890625 359.017578125 c 128,-1,22
 263.059570312 433.186523438 263.059570312 433.186523438 243.491210938 486.87890625 c 1,16,17
EndSplineSet
Validated: 1
EndChar

StartChar: B
Encoding: 66 66 37
Width: 500
GlyphClass: 2
Flags: W
LayerCount: 2
Fore
SplineSet
445.571289062 524.35546875 m 260,0,1
 445.571289062 495.149414062 445.571289062 495.149414062 421.6171875 472.860351562 c 132,-1,2
 397.662109375 450.571289062 397.662109375 450.571289062 358.208984375 450.571289062 c 4,3,4
 317.814453125 450.571289062 317.814453125 450.571289062 293.390625 472.860351562 c 132,-1,5
 268.967773438 495.149414062 268.967773438 495.149414062 268.967773438 524.35546875 c 260,6,7
 268.967773438 553.560546875 268.967773438 553.560546875 293.390625 575.850585938 c 132,-1,8
 317.814453125 598.13671875 317.814453125 598.13671875 358.208984375 598.13671875 c 4,9,10
 397.662109375 598.13671875 397.662109375 598.13671875 421.6171875 575.850585938 c 132,-1,11
 445.571289062 553.560546875 445.571289062 553.560546875 445.571289062 524.35546875 c 260,0,1
160.936523438 353.733398438 m 5,12,13
 175.029296875 360.649414062 175.029296875 360.649414062 201.80078125 367.950195312 c 132,-1,14
 228.573242188 375.25390625 228.573242188 375.25390625 261.452148438 375.25390625 c 4,15,16
 305.602539062 375.25390625 305.602539062 375.25390625 340.361328125 361.418945312 c 132,-1,17
 375.1171875 347.583984375 375.1171875 347.583984375 399.072265625 322.989257812 c 132,-1,18
 423.026367188 298.395507812 423.026367188 298.395507812 435.70703125 264.194335938 c 132,-1,19
 448.389648438 229.993164062 448.389648438 229.993164062 448.389648438 188.490234375 c 4,20,21
 448.389648438 145.450195312 448.389648438 145.450195312 433.359375 110.865234375 c 132,-1,22
 418.329101562 76.2783203125 418.329101562 76.2783203125 391.087890625 52.068359375 c 132,-1,23
 363.845703125 27.859375 363.845703125 27.859375 325.331054688 14.79296875 c 132,-1,24
 286.815429688 1.7275390625 286.815429688 1.7275390625 239.845703125 1.7275390625 c 4,25,26
 188.1796875 1.7275390625 188.1796875 1.7275390625 147.786132812 7.876953125 c 132,-1,27
 107.391601562 14.0244140625 107.391601562 14.0244140625 82.9677734375 20.1728515625 c 5,28,-1
 82.9677734375 532.041015625 l 5,29,-1
 160.936523438 542.799804688 l 5,30,-1
 160.936523438 353.733398438 l 5,12,13
160.936523438 65.5185546875 m 5,31,32
 178.786132812 61.6748046875 178.786132812 61.6748046875 196.6328125 59.7548828125 c 132,-1,33
 214.481445312 57.833984375 214.481445312 57.833984375 230.453125 57.833984375 c 4,34,35
 295.268554688 57.833984375 295.268554688 57.833984375 331.905273438 90.4970703125 c 132,-1,36
 368.54296875 123.162109375 368.54296875 123.162109375 368.54296875 188.490234375 c 4,37,38
 368.54296875 216.158203125 368.54296875 216.158203125 361.965820312 240.369140625 c 132,-1,39
 355.390625 264.578125 355.390625 264.578125 341.299804688 281.869140625 c 132,-1,40
 327.208984375 299.165039062 327.208984375 299.165039062 305.133789062 309.155273438 c 132,-1,41
 283.057617188 319.146484375 283.057617188 319.146484375 252.057617188 319.146484375 c 4,42,43
 224.814453125 319.146484375 224.814453125 319.146484375 199.453125 310.30859375 c 132,-1,44
 174.087890625 301.470703125 174.087890625 301.470703125 160.936523438 291.478515625 c 5,45,-1
 160.936523438 65.5185546875 l 5,31,32
EndSplineSet
Validated: 1
EndChar

StartChar: C
Encoding: 67 67 38
Width: 500
GlyphClass: 2
Flags: W
LayerCount: 2
Fore
SplineSet
203 600 m 260,0,1
 203 571 203 571 179 548.5 c 132,-1,2
 155 526 155 526 116 526 c 4,3,4
 76 526 76 526 51.5 548.5 c 132,-1,5
 27 571 27 571 27 600 c 260,6,7
 27 629 27 629 51.5 651.5 c 132,-1,8
 76 674 76 674 116 674 c 4,9,10
 155 674 155 674 179 651.5 c 132,-1,11
 203 629 203 629 203 600 c 260,0,1
457 603 m 260,12,13
 457 574 457 574 433 552 c 4,14,15
 409 529 409 529 370 529 c 4,16,17
 330 529 330 529 305 552 c 4,18,19
 281 574 281 574 281 603 c 260,20,21
 281 632 281 632 305 655 c 4,22,23
 330 677 330 677 370 677 c 4,24,25
 409 677 409 677 433 655 c 4,26,27
 457 632 457 632 457 603 c 260,12,13
82.6201171875 209.48046875 m 0,28,29
 83 263 83 263 99.8203125 301.879882812 c 0,30,31
 117 341 117 341 147.120117188 365.719726562 c 0,32,33
 177 391 177 391 217.639648438 402.6796875 c 0,34,35
 262 415 262 415 302.780273438 414.440429688 c 0,36,37
 332 414 332 414 361.259765625 411.080078125 c 0,38,39
 390 408 390 408 423.1796875 397.639648438 c 1,40,-1
 405.98046875 337.16015625 l 1,41,42
 378 347 378 347 354.379882812 350.599609375 c 0,43,44
 330 354 330 354 306.219726562 353.959960938 c 0,45,46
 275 354 275 354 247.740234375 345.559570312 c 0,47,48
 220 337 220 337 200.440429688 320.360351562 c 0,49,50
 181 304 181 304 168.620117188 275.83984375 c 0,51,52
 157 248 157 248 156.580078125 209.48046875 c 0,53,54
 157 173 157 173 167.759765625 146.48046875 c 0,55,56
 179 120 179 120 198.719726562 102.799804688 c 0,57,58
 218 85 218 85 246.879882812 76.759765625 c 0,59,60
 275 68 275 68 309.66015625 68.3603515625 c 0,61,62
 337 68 337 68 362.98046875 71.7197265625 c 0,63,64
 389 75 389 75 418.01953125 85.16015625 c 1,65,-1
 428.33984375 26.3603515625 l 1,66,67
 399 16 399 16 368.139648438 11.240234375 c 0,68,69
 337 6 337 6 301.059570312 6.2001953125 c 0,70,71
 253 6 253 6 212.48046875 19.6396484375 c 0,72,73
 172 33 172 33 143.6796875 58.2802734375 c 0,74,75
 115 83 115 83 98.9599609375 121.280273438 c 0,76,77
 83 159 83 159 82.6201171875 209.48046875 c 0,28,29
EndSplineSet
Validated: 33
EndChar

StartChar: D
Encoding: 68 68 39
Width: 500
GlyphClass: 2
Flags: W
LayerCount: 2
Fore
SplineSet
31.6181640625 509.533203125 m 4,0,1
 31.6181640625 471.950195312 31.6181640625 471.950195312 57.203125 443.135742188 c 132,-1,2
 82.787109375 414.3203125 82.787109375 414.3203125 125 414.3203125 c 4,3,4
 168.493164062 414.3203125 168.493164062 414.3203125 194.077148438 443.135742188 c 132,-1,5
 219.662109375 471.950195312 219.662109375 471.950195312 219.662109375 509.533203125 c 4,6,7
 219.662109375 548.37109375 219.662109375 548.37109375 194.077148438 577.185546875 c 132,-1,8
 168.493164062 606 168.493164062 606 125 606 c 4,9,10
 82.787109375 606 82.787109375 606 57.203125 577.185546875 c 132,-1,11
 31.6181640625 548.37109375 31.6181640625 548.37109375 31.6181640625 509.533203125 c 4,0,1
386 239 m 1,12,13
 369 247 369 247 337.5 254 c 128,-1,14
 306 261 306 261 271 261 c 0,15,16
 232 261 232 261 204.5 253 c 128,-1,17
 177 245 177 245 159.5 231 c 128,-1,18
 142 217 142 217 133.5 197.5 c 128,-1,19
 125 178 125 178 125 156 c 0,20,21
 125 106 125 106 170 78.5 c 128,-1,22
 215 51 215 51 287 51 c 0,23,24
 323 51 323 51 348.5 53 c 128,-1,25
 374 55 374 55 386 57 c 1,26,-1
 386 239 l 1,12,13
386 556 m 1,27,-1
 484 565 l 1,28,-1
 484 20 l 1,29,30
 452 16 452 16 403 10 c 0,31,32
 353 5 353 5 287 5 c 0,33,34
 227 5 227 5 179 16 c 0,35,36
 130 27 130 27 97 46 c 0,37,38
 62 66 62 66 43 93.5 c 128,-1,39
 24 121 24 121 25 156 c 0,40,41
 24 189 24 189 41 217 c 0,42,43
 57 244 57 244 87 264 c 0,44,45
 118 284 118 284 161 295 c 256,46,47
 204 306 204 306 260 306 c 0,48,49
 303 306 303 306 336.5 300.5 c 128,-1,50
 370 295 370 295 386 289 c 1,51,-1
 386 556 l 1,27,-1
EndSplineSet
Validated: 524329
EndChar

StartChar: E
Encoding: 69 69 40
Width: 500
GlyphClass: 2
Flags: W
LayerCount: 2
Fore
SplineSet
448 27 m 1,0,-1
 448 91 l 1,1,-1
 64 91 l 1,2,-1
 64 27 l 1,3,-1
 448 27 l 1,0,-1
448 269 m 5,4,-1
 448 333 l 5,5,-1
 64 333 l 5,6,-1
 64 269 l 5,7,-1
 448 269 l 5,4,-1
448 503 m 1,8,-1
 448 567 l 1,9,-1
 64 567 l 1,10,-1
 64 503 l 1,11,-1
 448 503 l 1,8,-1
EndSplineSet
Validated: 9
EndChar

StartChar: F
Encoding: 70 70 41
Width: 500
GlyphClass: 2
Flags: W
LayerCount: 2
Fore
SplineSet
445.639648438 251.514648438 m 5,0,-1
 445.639648438 326.5546875 l 5,1,-1
 382.280273438 326.5546875 l 5,2,-1
 382.280273438 401.594726562 l 5,3,-1
 318.919921875 401.594726562 l 5,4,-1
 318.919921875 326.5546875 l 5,5,-1
 2.1201171875 326.5546875 l 5,6,-1
 2.1201171875 251.514648438 l 5,7,-1
 318.919921875 251.514648438 l 5,8,-1
 318.919921875 176.474609375 l 5,9,-1
 255.559570312 176.474609375 l 5,10,-1
 255.559570312 101.434570312 l 5,11,-1
 318.919921875 101.434570312 l 5,12,-1
 318.919921875 176.474609375 l 5,13,-1
 382.280273438 176.474609375 l 5,14,-1
 382.280273438 251.514648438 l 5,15,-1
 445.639648438 251.514648438 l 5,0,-1
318.919921875 401.594726562 m 5,16,-1
 318.919921875 476.634765625 l 5,17,-1
 255.559570312 476.634765625 l 5,18,-1
 255.559570312 401.594726562 l 5,19,-1
 318.919921875 401.594726562 l 5,16,-1
EndSplineSet
Validated: 524293
EndChar

StartChar: G
Encoding: 71 71 42
Width: 500
GlyphClass: 2
Flags: W
LayerCount: 2
Fore
SplineSet
344.381835938 672.533203125 m 4
 344.381835938 634.950195312 344.381835938 634.950195312 318.796875 606.135742188 c 4
 293.212890625 577.3203125 293.212890625 577.3203125 251 577.3203125 c 4
 207.506835938 577.3203125 207.506835938 577.3203125 181.922851562 606.135742188 c 4
 156.337890625 634.950195312 156.337890625 634.950195312 156.337890625 672.533203125 c 4
 156.337890625 711.37109375 156.337890625 711.37109375 181.922851562 740.185546875 c 4
 207.506835938 769 207.506835938 769 251 769 c 4
 293.212890625 769 293.212890625 769 318.796875 740.185546875 c 4
 344.381835938 711.37109375 344.381835938 711.37109375 344.381835938 672.533203125 c 4
EndSplineSet
Refer: 74 103 N 0.9792 0 0 0.887778 5.5016 2.28418 3
Validated: 1
EndChar

StartChar: H
Encoding: 72 72 43
Width: 500
GlyphClass: 2
Flags: W
LayerCount: 2
Fore
SplineSet
46 298 m 1,0,-1
 455 298 l 1,1,-1
 455 228 l 1,2,-1
 46 228 l 1,3,-1
 46 298 l 1,0,-1
308 96 m 0,4,5
 308 72 308 72 292 54 c 128,-1,6
 276 36 276 36 250 36 c 0,7,8
 223 36 223 36 206.5 54 c 128,-1,9
 190 72 190 72 190 96 c 0,10,11
 190 121 190 121 206.5 139.5 c 128,-1,12
 223 158 223 158 250 158 c 0,13,14
 276 158 276 158 292 139.5 c 128,-1,15
 308 121 308 121 308 96 c 0,4,5
308 428 m 0,16,17
 308 404 308 404 292 385.5 c 128,-1,18
 276 367 276 367 250 367 c 0,19,20
 223 367 223 367 206.5 385.5 c 128,-1,21
 190 404 190 404 190 428 c 0,22,23
 190 453 190 453 206.5 471 c 128,-1,24
 223 489 223 489 250 489 c 0,25,26
 276 489 276 489 292 471 c 128,-1,27
 308 453 308 453 308 428 c 0,16,17
EndSplineSet
Validated: 1
EndChar

StartChar: I
Encoding: 73 73 44
Width: 500
GlyphClass: 2
Flags: W
LayerCount: 2
Fore
SplineSet
46 202 m 1,0,-1
 182 202 l 1,1,-1
 243 321 l 1,2,-1
 46 321 l 1,3,-1
 46 392 l 1,4,-1
 279 392 l 1,5,-1
 338 509 l 1,6,-1
 396 477 l 1,7,-1
 354 392 l 1,8,-1
 455 392 l 1,9,-1
 455 321 l 1,10,-1
 318 321 l 1,11,-1
 257 202 l 1,12,-1
 455 202 l 1,13,-1
 455 131 l 1,14,-1
 221 131 l 1,15,-1
 163 14 l 1,16,-1
 104 46 l 1,17,-1
 146 131 l 1,18,-1
 46 131 l 1,19,-1
 46 202 l 1,0,-1
EndSplineSet
Validated: 1
EndChar

StartChar: J
Encoding: 74 74 45
Width: 500
GlyphClass: 2
Flags: W
LayerCount: 2
Fore
SplineSet
113.200195312 398.668945312 m 1,0,-1
 113.200195312 446.776367188 l 1,1,-1
 388.599609375 446.776367188 l 1,2,-1
 388.599609375 126.760742188 l 2,3,4
 388.599609375 93.2958984375 388.599609375 93.2958984375 374.830078125 69.939453125 c 128,-1,5
 361.059570312 46.583984375 361.059570312 46.583984375 338.110351562 31.94140625 c 128,-1,6
 315.16015625 17.30078125 315.16015625 17.30078125 285.0703125 11.0263671875 c 128,-1,7
 254.98046875 4.7509765625 254.98046875 4.7509765625 221.3203125 4.7509765625 c 0,8,9
 182.559570312 4.7509765625 182.559570312 4.7509765625 143.290039062 10.3291015625 c 128,-1,10
 104.01953125 15.90625 104.01953125 15.90625 69.33984375 27.7587890625 c 1,11,-1
 94.83984375 76.5625 l 1,12,13
 120.33984375 68.1962890625 120.33984375 68.1962890625 151.450195312 62.2705078125 c 128,-1,14
 182.559570312 56.34375 182.559570312 56.34375 211.120117188 56.34375 c 0,15,16
 251.919921875 56.34375 251.919921875 56.34375 278.440429688 70.63671875 c 128,-1,17
 304.959960938 84.9287109375 304.959960938 84.9287109375 304.959960938 126.063476562 c 2,18,-1
 304.959960938 398.668945312 l 1,19,-1
 113.200195312 398.668945312 l 1,0,-1
357.381835938 659.533203125 m 4,20,21
 357 622 357 622 331.796875 593.135742188 c 4,22,23
 306 564 306 564 264 564.3203125 c 4,24,25
 221 564 221 564 194.922851562 593.135742188 c 4,26,27
 169 622 169 622 169.337890625 659.533203125 c 4,28,29
 169 698 169 698 194.922851562 727.185546875 c 4,30,31
 221 756 221 756 264 756 c 4,32,33
 306 756 306 756 331.796875 727.185546875 c 4,34,35
 357 698 357 698 357.381835938 659.533203125 c 4,20,21
EndSplineSet
Validated: 33
EndChar

StartChar: L
Encoding: 76 76 47
Width: 500
GlyphClass: 2
Flags: W
LayerCount: 2
Fore
SplineSet
469.740234375 317.599609375 m 260,0,1
 469.740234375 284.639648438 469.740234375 284.639648438 449.03515625 259.919921875 c 132,-1,2
 428.330078125 235.200195312 428.330078125 235.200195312 392.98046875 235.200195312 c 260,3,4
 357.629882812 235.200195312 357.629882812 235.200195312 336.924804688 259.919921875 c 132,-1,5
 316.219726562 284.639648438 316.219726562 284.639648438 316.219726562 317.599609375 c 260,6,7
 316.219726562 350.559570312 316.219726562 350.559570312 336.924804688 375.280273438 c 132,-1,8
 357.629882812 400 357.629882812 400 392.98046875 400 c 260,9,10
 428.330078125 400 428.330078125 400 449.03515625 375.280273438 c 132,-1,11
 469.740234375 350.559570312 469.740234375 350.559570312 469.740234375 317.599609375 c 260,0,1
317.815429688 1.01171875 m 4,12,13
 270.76953125 1.3896484375 270.76953125 1.3896484375 239.594726562 10.4462890625 c 4,14,15
 197.040039062 23.01953125 197.040039062 23.01953125 190.306640625 38.7529296875 c 4,16,17
 177.849609375 70.400390625 177.849609375 70.400390625 164.58984375 85.0283203125 c 4,18,19
 157.08984375 92.60546875 157.08984375 92.60546875 157.08984375 149.27734375 c 6,20,-1
 157.08984375 492.536132812 l 5,21,-1
 13.5068359375 492.536132812 l 5,22,-1
 13.5068359375 547.348632812 l 5,23,-1
 244.953125 547.348632812 l 5,24,-1
 244.953125 149.27734375 l 6,25,26
 244.509765625 120.870117188 244.509765625 120.870117188 249.775390625 104.797851562 c 4,27,28
 254.610351562 87.91015625 254.610351562 87.91015625 264.776367188 76.9423828125 c 4,29,30
 272.790039062 68.33984375 272.790039062 68.33984375 289.956054688 62.5634765625 c 4,31,32
 301.0703125 59.0703125 301.0703125 59.0703125 325.31640625 58.51953125 c 4,33,34
 356.620117188 58.0400390625 356.620117188 58.0400390625 383.177734375 63.9111328125 c 4,35,36
 410.150390625 69.3701171875 410.150390625 69.3701171875 424.966796875 75.5927734375 c 5,37,-1
 437.82421875 20.7802734375 l 5,38,39
 431.360351562 19.9296875 431.360351562 19.9296875 419.609375 15.3876953125 c 4,40,41
 414.190429688 12.7197265625 414.190429688 12.7197265625 391.75 8.6494140625 c 4,42,43
 375.809570312 5.509765625 375.809570312 5.509765625 356.92578125 3.2578125 c 4,44,45
 338.440429688 1.3896484375 338.440429688 1.3896484375 317.815429688 1.01171875 c 4,12,13
EndSplineSet
Validated: 33
EndChar

StartChar: M
Encoding: 77 77 48
Width: 500
GlyphClass: 2
Flags: W
LayerCount: 2
Fore
SplineSet
454 71 m 1,0,-1
 45 71 l 1,1,-1
 45 1 l 1,2,-1
 454 1 l 1,3,-1
 454 71 l 1,0,-1
362 316 m 1,4,-1
 45 185 l 1,5,-1
 68 116 l 1,6,-1
 454 280 l 1,7,-1
 454 351 l 1,8,-1
 68 515 l 1,9,-1
 45 446 l 1,10,-1
 362 316 l 1,4,-1
EndSplineSet
Validated: 9
EndChar

StartChar: N
Encoding: 78 78 49
Width: 500
GlyphClass: 2
Flags: W
LayerCount: 2
Fore
SplineSet
302.381835938 647.533203125 m 4
 302.381835938 609.950195312 302.381835938 609.950195312 276.796875 581.135742188 c 4
 251.212890625 552.3203125 251.212890625 552.3203125 209 552.3203125 c 4
 165.506835938 552.3203125 165.506835938 552.3203125 139.922851562 581.135742188 c 4
 114.337890625 609.950195312 114.337890625 609.950195312 114.337890625 647.533203125 c 4
 114.337890625 686.37109375 114.337890625 686.37109375 139.922851562 715.185546875 c 4
 165.506835938 744 165.506835938 744 209 744 c 4
 251.212890625 744 251.212890625 744 276.796875 715.185546875 c 4
 302.381835938 686.37109375 302.381835938 686.37109375 302.381835938 647.533203125 c 4
EndSplineSet
Refer: 81 110 N 0.92 0 0 0.77 16.8 3.03 3
Validated: 1
EndChar

StartChar: O
Encoding: 79 79 50
Width: 500
GlyphClass: 2
Flags: W
LayerCount: 2
Fore
SplineSet
46 71 m 1,0,-1
 455 71 l 1,1,-1
 455 1 l 1,2,-1
 46 1 l 1,3,-1
 46 71 l 1,0,-1
138 316 m 1,4,-1
 455 185 l 1,5,-1
 432 116 l 1,6,-1
 46 280 l 1,7,-1
 46 351 l 1,8,-1
 432 515 l 1,9,-1
 455 446 l 1,10,-1
 138 316 l 1,4,-1
EndSplineSet
Validated: 1
EndChar

StartChar: P
Encoding: 80 80 51
Width: 500
GlyphClass: 2
Flags: W
LayerCount: 2
Fore
SplineSet
24 249.6796875 m 5,0,-1
 24 322.3203125 l 5,1,-1
 88 322.3203125 l 5,2,-1
 88 394.959960938 l 5,3,-1
 152 394.959960938 l 5,4,-1
 152 322.3203125 l 5,5,-1
 472 322.3203125 l 5,6,-1
 472 249.6796875 l 5,7,-1
 152 249.6796875 l 5,8,-1
 152 177.040039062 l 5,9,-1
 216 177.040039062 l 5,10,-1
 216 104.400390625 l 5,11,-1
 152 104.400390625 l 5,12,-1
 152 177.040039062 l 5,13,-1
 88 177.040039062 l 5,14,-1
 88 249.6796875 l 5,15,-1
 24 249.6796875 l 5,0,-1
152 394.959960938 m 5,16,-1
 152 467.599609375 l 5,17,-1
 216 467.599609375 l 5,18,-1
 216 394.959960938 l 5,19,-1
 152 394.959960938 l 5,16,-1
EndSplineSet
Validated: 524293
EndChar

StartChar: Q
Encoding: 81 81 52
Width: 500
GlyphClass: 2
Flags: W
LayerCount: 2
Fore
SplineSet
389.381835938 639.533203125 m 4,0,1
 389.381835938 601.950195312 389.381835938 601.950195312 363.796875 573.135742188 c 132,-1,2
 338.212890625 544.3203125 338.212890625 544.3203125 296 544.3203125 c 4,3,4
 252.506835938 544.3203125 252.506835938 544.3203125 226.922851562 573.135742188 c 132,-1,5
 201.337890625 601.950195312 201.337890625 601.950195312 201.337890625 639.533203125 c 4,6,7
 201.337890625 678.37109375 201.337890625 678.37109375 226.922851562 707.185546875 c 132,-1,8
 252.506835938 736 252.506835938 736 296 736 c 4,9,10
 338.212890625 736 338.212890625 736 363.796875 707.185546875 c 132,-1,11
 389.381835938 678.37109375 389.381835938 678.37109375 389.381835938 639.533203125 c 4,0,1
339.240234375 254.150390625 m 1,12,13
 326 247 326 247 302.379882812 241.400390625 c 0,14,15
 278 235 278 235 251.83984375 235.450195312 c 0,16,17
 222 235 222 235 201.299804688 242.25 c 0,18,19
 180 249 180 249 167.099609375 260.950195312 c 128,-1,20
 154 273 154 273 147.33984375 289.424804688 c 0,21,22
 141 306 141 306 140.879882812 324.700195312 c 0,23,24
 141 367 141 367 175.080078125 390.575195312 c 128,-1,25
 209 414 209 414 264 413.950195312 c 0,26,27
 291 414 291 414 310.740234375 412.25 c 0,28,29
 330 411 330 411 339.240234375 408.849609375 c 1,30,-1
 339.240234375 254.150390625 l 1,12,13
339.240234375 16.150390625 m 1,31,-1
 413.719726562 8.5 l 1,32,-1
 413.719726562 440.299804688 l 1,33,34
 356 448 356 448 352.16015625 448.799804688 c 0,35,36
 314 453 314 453 264 453.049804688 c 0,37,38
 218 453 218 453 181.919921875 443.700195312 c 0,39,40
 145 434 145 434 119.599609375 418.200195312 c 0,41,42
 93 401 93 401 78.5595703125 377.825195312 c 0,43,44
 66 357 66 357 64.8798828125 324.700195312 c 0,45,46
 64 297 64 297 77.0400390625 272.849609375 c 0,47,48
 89 250 89 250 112 232.900390625 c 0,49,50
 136 216 136 216 168.240234375 206.549804688 c 256,51,52
 201 197 201 197 243.48046875 197.200195312 c 0,53,54
 276 197 276 197 301.620117188 201.875 c 0,55,56
 327 207 327 207 339.240234375 211.650390625 c 1,57,-1
 339.240234375 16.150390625 l 1,31,-1
EndSplineSet
Validated: 41
EndChar

StartChar: R
Encoding: 82 82 53
Width: 500
GlyphClass: 2
Flags: W
LayerCount: 2
Fore
SplineSet
344.381835938 618.533203125 m 4
 344.381835938 580.950195312 344.381835938 580.950195312 318.796875 552.135742188 c 4
 293.212890625 523.3203125 293.212890625 523.3203125 251 523.3203125 c 4
 207.506835938 523.3203125 207.506835938 523.3203125 181.922851562 552.135742188 c 4
 156.337890625 580.950195312 156.337890625 580.950195312 156.337890625 618.533203125 c 4
 156.337890625 657.37109375 156.337890625 657.37109375 181.922851562 686.185546875 c 4
 207.506835938 715 207.506835938 715 251 715 c 4
 293.212890625 715 293.212890625 715 318.796875 686.185546875 c 4
 344.381835938 657.37109375 344.381835938 657.37109375 344.381835938 618.533203125 c 4
EndSplineSet
Refer: 85 114 N 1.01 0 0 0.79 -2.52 1.19 3
Validated: 1
EndChar

StartChar: S
Encoding: 83 83 54
Width: 500
GlyphClass: 2
Flags: W
LayerCount: 2
Fore
SplineSet
344.381835938 550.533203125 m 4
 344.381835938 512.950195312 344.381835938 512.950195312 318.796875 484.135742188 c 4
 293.212890625 455.3203125 293.212890625 455.3203125 251 455.3203125 c 4
 207.506835938 455.3203125 207.506835938 455.3203125 181.922851562 484.135742188 c 4
 156.337890625 512.950195312 156.337890625 512.950195312 156.337890625 550.533203125 c 4
 156.337890625 589.37109375 156.337890625 589.37109375 181.922851562 618.185546875 c 4
 207.506835938 647 207.506835938 647 251 647 c 4
 293.212890625 647 293.212890625 647 318.796875 618.185546875 c 4
 344.381835938 589.37109375 344.381835938 589.37109375 344.381835938 550.533203125 c 4
EndSplineSet
Refer: 86 115 N 0.89 0 0 0.75 25.19 2.75 3
Validated: 1
EndChar

StartChar: T
Encoding: 84 84 55
Width: 500
GlyphClass: 2
Flags: W
LayerCount: 2
Fore
SplineSet
246.98046875 420.669921875 m 5,0,-1
 446.900390625 420.669921875 l 5,1,-1
 446.900390625 360.033203125 l 5,2,-1
 246.98046875 360.033203125 l 5,3,-1
 246.98046875 170.213867188 l 6,4,5
 246.98046875 139.455078125 246.98046875 139.455078125 252.080078125 120.122070312 c 132,-1,6
 257.1796875 100.788085938 257.1796875 100.788085938 268.91015625 88.9248046875 c 132,-1,7
 280.639648438 77.060546875 280.639648438 77.060546875 299 72.666015625 c 132,-1,8
 317.360351562 68.2724609375 317.360351562 68.2724609375 343.879882812 68.2724609375 c 4,9,10
 380.599609375 68.2724609375 380.599609375 68.2724609375 403.040039062 73.5458984375 c 132,-1,11
 425.48046875 78.818359375 425.48046875 78.818359375 445.879882812 87.60546875 c 5,12,-1
 458.120117188 26.08984375 l 5,13,14
 443.83984375 20.8173828125 443.83984375 20.8173828125 412.73046875 12.0302734375 c 132,-1,15
 381.620117188 3.2421875 381.620117188 3.2421875 335.719726562 3.2421875 c 4,16,17
 282.6796875 3.2421875 282.6796875 3.2421875 249.01953125 13.787109375 c 132,-1,18
 215.360351562 24.3330078125 215.360351562 24.3330078125 196.490234375 45.423828125 c 132,-1,19
 177.620117188 66.5146484375 177.620117188 66.5146484375 170.48046875 97.7119140625 c 132,-1,20
 163.33984375 128.909179688 163.33984375 128.909179688 163.33984375 170.213867188 c 6,21,-1
 163.33984375 360.033203125 l 5,22,-1
 63.3798828125 360.033203125 l 5,23,-1
 63.3798828125 420.669921875 l 5,24,-1
 163.33984375 420.669921875 l 5,25,-1
 163.33984375 534.913085938 l 5,26,-1
 246.98046875 547.215820312 l 5,27,-1
 246.98046875 420.669921875 l 5,0,-1
272.291992188 690.484375 m 4,28,29
 273 661 273 661 251.484375 636.456054688 c 4,30,31
 231 613 231 613 196.342773438 613.009765625 c 4,32,33
 160 613 160 613 140.161132812 636.456054688 c 4,34,35
 119 660 119 660 119.353515625 690.484375 c 4,36,37
 120 722 120 722 140.161132812 745.534179688 c 4,38,39
 161 769 161 769 196.342773438 768.978515625 c 4,40,41
 231 768 231 768 251.484375 745.534179688 c 4,42,43
 272 724 272 724 272.291992188 690.484375 c 4,28,29
EndSplineSet
Validated: 33
EndChar

StartChar: U
Encoding: 85 85 56
Width: 500
GlyphClass: 2
Flags: W
LayerCount: 2
Fore
SplineSet
223.2578125 527.755859375 m 5,0,-1
 288.541992188 527.755859375 l 5,1,-1
 288.541992188 452.52734375 l 5,2,-1
 353.827148438 452.52734375 l 5,3,-1
 353.827148438 377.30078125 l 5,4,-1
 288.541992188 377.30078125 l 5,5,-1
 288.541992188 1.1640625 l 5,6,-1
 223.2578125 1.1640625 l 5,7,-1
 223.2578125 377.30078125 l 5,8,-1
 157.97265625 377.30078125 l 5,9,-1
 157.97265625 302.072265625 l 5,10,-1
 92.6875 302.072265625 l 5,11,-1
 92.6875 377.30078125 l 5,12,-1
 157.97265625 377.30078125 l 5,13,-1
 157.97265625 452.52734375 l 5,14,-1
 223.2578125 452.52734375 l 5,15,-1
 223.2578125 527.755859375 l 5,0,-1
353.827148438 377.30078125 m 5,16,-1
 419.111328125 377.30078125 l 5,17,-1
 419.111328125 302.072265625 l 5,18,-1
 353.827148438 302.072265625 l 5,19,-1
 353.827148438 377.30078125 l 5,16,-1
EndSplineSet
EndChar

StartChar: V
Encoding: 86 86 57
Width: 500
GlyphClass: 2
Flags: W
LayerCount: 2
Fore
SplineSet
223.2578125 2.244140625 m 5,0,-1
 288.541992188 2.244140625 l 5,1,-1
 288.541992188 77.47265625 l 5,2,-1
 353.827148438 77.47265625 l 5,3,-1
 353.827148438 152.69921875 l 5,4,-1
 288.541992188 152.69921875 l 5,5,-1
 288.541992188 528.8359375 l 5,6,-1
 223.2578125 528.8359375 l 5,7,-1
 223.2578125 152.69921875 l 5,8,-1
 157.97265625 152.69921875 l 5,9,-1
 157.97265625 227.927734375 l 5,10,-1
 92.6875 227.927734375 l 5,11,-1
 92.6875 152.69921875 l 5,12,-1
 157.97265625 152.69921875 l 5,13,-1
 157.97265625 77.47265625 l 5,14,-1
 223.2578125 77.47265625 l 5,15,-1
 223.2578125 2.244140625 l 5,0,-1
353.827148438 152.69921875 m 5,16,-1
 419.111328125 152.69921875 l 5,17,-1
 419.111328125 227.927734375 l 5,18,-1
 353.827148438 227.927734375 l 5,19,-1
 353.827148438 152.69921875 l 5,16,-1
EndSplineSet
Validated: 5
EndChar

StartChar: W
Encoding: 87 87 58
Width: 500
GlyphClass: 2
Flags: W
LayerCount: 2
Fore
SplineSet
438 292 m 256,0,1
 438 214 438 214 420.5 158.5 c 128,-1,2
 403 103 403 103 373.5 69 c 128,-1,3
 344 35 344 35 303 19.5 c 128,-1,4
 262 4 262 4 215 4 c 0,5,6
 164 4 164 4 112 18 c 1,7,-1
 112 275 l 1,8,-1
 68 275 l 1,9,-1
 68 333 l 1,10,-1
 112 333 l 1,11,-1
 112 567 l 1,12,13
 164 581 164 581 215 581 c 0,14,15
 262 581 262 581 303 565.5 c 128,-1,16
 344 550 344 550 373.5 515 c 128,-1,17
 403 480 403 480 420.5 425 c 128,-1,18
 438 370 438 370 438 292 c 256,0,1
182 72 m 1,19,20
 191 70 191 70 201 69.5 c 128,-1,21
 211 69 211 69 220 69 c 0,22,23
 256 69 256 69 283 81 c 128,-1,24
 310 93 310 93 329 120 c 128,-1,25
 348 147 348 147 358 190 c 128,-1,26
 368 233 368 233 368 292 c 0,27,28
 368 407 368 407 330 461.5 c 128,-1,29
 292 516 292 516 218 516 c 0,30,31
 197 516 197 516 182 513 c 1,32,-1
 182 333 l 1,33,-1
 264 333 l 1,34,-1
 264 275 l 1,35,-1
 182 275 l 1,36,-1
 182 72 l 1,19,20
EndSplineSet
Validated: 1
EndChar

StartChar: X
Encoding: 88 88 59
Width: 500
GlyphClass: 2
Flags: W
LayerCount: 2
Fore
SplineSet
344.381835938 654.533203125 m 4,0,1
 344.381835938 616.950195312 344.381835938 616.950195312 318.796875 588.135742188 c 132,-1,2
 293.212890625 559.3203125 293.212890625 559.3203125 251 559.3203125 c 4,3,4
 207.506835938 559.3203125 207.506835938 559.3203125 181.922851562 588.135742188 c 132,-1,5
 156.337890625 616.950195312 156.337890625 616.950195312 156.337890625 654.533203125 c 4,6,7
 156.337890625 693.37109375 156.337890625 693.37109375 181.922851562 722.185546875 c 132,-1,8
 207.506835938 751 207.506835938 751 251 751 c 4,9,10
 293.212890625 751 293.212890625 751 318.796875 722.185546875 c 132,-1,11
 344.381835938 693.37109375 344.381835938 693.37109375 344.381835938 654.533203125 c 4,0,1
459 476 m 1,12,-1
 459 407 l 1,13,-1
 290 407 l 1,14,-1
 290 0 l 1,15,-1
 209 0 l 1,16,-1
 209 407 l 1,17,-1
 40 407 l 1,18,-1
 40 476 l 1,19,-1
 459 476 l 1,12,-1
EndSplineSet
Validated: 1
EndChar

StartChar: Y
Encoding: 89 89 60
Width: 500
GlyphClass: 2
Flags: W
LayerCount: 2
Fore
SplineSet
344.381835938 654.533203125 m 4,0,1
 344.381835938 616.950195312 344.381835938 616.950195312 318.796875 588.135742188 c 132,-1,2
 293.212890625 559.3203125 293.212890625 559.3203125 251 559.3203125 c 4,3,4
 207.506835938 559.3203125 207.506835938 559.3203125 181.922851562 588.135742188 c 132,-1,5
 156.337890625 616.950195312 156.337890625 616.950195312 156.337890625 654.533203125 c 4,6,7
 156.337890625 693.37109375 156.337890625 693.37109375 181.922851562 722.185546875 c 132,-1,8
 207.506835938 751 207.506835938 751 251 751 c 4,9,10
 293.212890625 751 293.212890625 751 318.796875 722.185546875 c 132,-1,11
 344.381835938 693.37109375 344.381835938 693.37109375 344.381835938 654.533203125 c 4,0,1
65.490234375 65.98046875 m 1,12,13
 73.8603515625 62.080078125 73.8603515625 62.080078125 89.205078125 59.740234375 c 128,-1,14
 104.549804688 57.400390625 104.549804688 57.400390625 117.5703125 57.400390625 c 0,15,16
 163.139648438 57.400390625 163.139648438 57.400390625 188.71484375 74.169921875 c 128,-1,17
 214.290039062 90.9404296875 214.290039062 90.9404296875 235.6796875 129.16015625 c 1,18,19
 183.599609375 211.83984375 183.599609375 211.83984375 138.030273438 306.610351562 c 128,-1,20
 92.4599609375 401.379882812 92.4599609375 401.379882812 62.7001953125 495.759765625 c 1,21,-1
 146.400390625 495.759765625 l 1,22,23
 155.700195312 464.559570312 155.700195312 464.559570312 168.254882812 428.290039062 c 128,-1,24
 180.809570312 392.01953125 180.809570312 392.01953125 196.620117188 353.799804688 c 128,-1,25
 212.4296875 315.580078125 212.4296875 315.580078125 230.565429688 276.969726562 c 128,-1,26
 248.700195312 238.360351562 248.700195312 238.360351562 269.16015625 203.259765625 c 1,27,28
 284.040039062 239.139648438 284.040039062 239.139648438 297.059570312 274.240234375 c 128,-1,29
 310.080078125 309.33984375 310.080078125 309.33984375 321.240234375 344.830078125 c 128,-1,30
 332.400390625 380.3203125 332.400390625 380.3203125 343.559570312 417.370117188 c 128,-1,31
 354.719726562 454.419921875 354.719726562 454.419921875 366.809570312 495.759765625 c 1,32,-1
 446.790039062 495.759765625 l 1,33,34
 417.030273438 394.360351562 417.030273438 394.360351562 380.294921875 299.200195312 c 128,-1,35
 343.559570312 204.040039062 343.559570312 204.040039062 301.709960938 122.919921875 c 0,36,37
 285.900390625 91.7197265625 285.900390625 91.7197265625 267.764648438 69.099609375 c 128,-1,38
 249.629882812 46.48046875 249.629882812 46.48046875 228.240234375 31.66015625 c 128,-1,39
 206.849609375 16.83984375 206.849609375 16.83984375 179.879882812 9.8203125 c 128,-1,40
 152.91015625 2.7998046875 152.91015625 2.7998046875 118.5 2.7998046875 c 0,41,42
 100.830078125 2.7998046875 100.830078125 2.7998046875 79.9052734375 6.7001953125 c 128,-1,43
 58.98046875 10.599609375 58.98046875 10.599609375 51.5400390625 13.7197265625 c 1,44,-1
 65.490234375 65.98046875 l 1,12,13
EndSplineSet
Validated: 1
EndChar

StartChar: Z
Encoding: 90 90 61
Width: 500
GlyphClass: 2
Flags: W
LayerCount: 2
Fore
SplineSet
180 323 m 1,0,1
 229 259 229 259 282 195 c 128,-1,2
 335 131 335 131 377 71 c 1,3,-1
 58 71 l 1,4,-1
 58 1 l 1,5,-1
 465 1 l 1,6,-1
 465 66 l 1,7,8
 431 121 431 121 378 187 c 128,-1,9
 325 253 325 253 271 322 c 1,10,11
 323 391 323 391 372.5 455.5 c 128,-1,12
 422 520 422 520 452 565 c 1,13,-1
 452 620 l 1,14,-1
 59 620 l 1,15,-1
 59 550 l 1,16,-1
 351 550 l 1,17,18
 338 531 338 531 319 505 c 128,-1,19
 300 479 300 479 277 449 c 128,-1,20
 254 419 254 419 229 386.5 c 128,-1,21
 204 354 204 354 180 323 c 1,0,1
EndSplineSet
Validated: 9
EndChar

StartChar: bracketleft
Encoding: 91 91 62
Width: 500
GlyphClass: 2
Flags: W
LayerCount: 2
Fore
SplineSet
143 699 m 1,0,-1
 382 699 l 1,1,-1
 382 634 l 1,2,-1
 221 634 l 1,3,-1
 221 -100 l 1,4,-1
 382 -100 l 1,5,-1
 382 -165 l 1,6,-1
 143 -165 l 1,7,-1
 143 699 l 1,0,-1
EndSplineSet
Validated: 1
EndChar

StartChar: backslash
Encoding: 92 92 63
Width: 500
GlyphClass: 2
Flags: W
LayerCount: 2
Fore
SplineSet
70 699 m 1,0,-1
 153 699 l 1,1,-1
 430 -165 l 1,2,-1
 346 -165 l 1,3,-1
 70 699 l 1,0,-1
EndSplineSet
Validated: 1
EndChar

StartChar: bracketright
Encoding: 93 93 64
Width: 500
GlyphClass: 2
Flags: W
LayerCount: 2
Fore
SplineSet
357 -165 m 1,0,-1
 118 -165 l 1,1,-1
 118 -100 l 1,2,-1
 279 -100 l 1,3,-1
 279 634 l 1,4,-1
 118 634 l 1,5,-1
 118 699 l 1,6,-1
 357 699 l 1,7,-1
 357 -165 l 1,0,-1
EndSplineSet
Validated: 1
EndChar

StartChar: asciicircum
Encoding: 94 94 65
Width: 500
GlyphClass: 2
Flags: W
LayerCount: 2
Fore
SplineSet
287 619 m 1,0,-1
 460 315 l 1,1,-1
 394 281 l 1,2,-1
 250 533 l 1,3,-1
 106 281 l 1,4,-1
 40 315 l 1,5,-1
 213 619 l 1,6,-1
 287 619 l 1,0,-1
EndSplineSet
Validated: 1
EndChar

StartChar: underscore
Encoding: 95 95 66
Width: 500
GlyphClass: 2
Flags: W
LayerCount: 2
Fore
SplineSet
8 -95 m 1,0,-1
 492 -95 l 1,1,-1
 492 -165 l 1,2,-1
 8 -165 l 1,3,-1
 8 -95 l 1,0,-1
EndSplineSet
Validated: 1
EndChar

StartChar: grave
Encoding: 96 96 67
Width: 500
GlyphClass: 2
Flags: W
LayerCount: 2
Fore
SplineSet
216 693 m 1,0,-1
 330 555 l 1,1,-1
 288 518 l 1,2,-1
 163 640 l 1,3,-1
 216 693 l 1,0,-1
EndSplineSet
Validated: 1
EndChar

StartChar: a
Encoding: 97 97 68
Width: 500
GlyphClass: 2
Flags: W
LayerCount: 2
Fore
SplineSet
248.561523438 80.267578125 m 4,0,1
 273.564453125 80.267578125 273.564453125 80.267578125 293.32421875 82.546875 c 132,-1,2
 313.083984375 84.8271484375 313.083984375 84.8271484375 325.98828125 88.2451171875 c 5,3,-1
 325.98828125 245.541015625 l 5,4,5
 313.083984375 251.241210938 313.083984375 251.241210938 294.936523438 254.66015625 c 132,-1,6
 276.790039062 258.081054688 276.790039062 258.081054688 256.627929688 258.081054688 c 4,7,8
 238.077148438 258.081054688 238.077148438 258.081054688 220.333007812 254.08984375 c 132,-1,9
 202.590820312 250.1015625 202.590820312 250.1015625 188.87890625 239.842773438 c 132,-1,10
 175.16796875 229.583984375 175.16796875 229.583984375 166.295898438 213.057617188 c 132,-1,11
 157.424804688 196.529296875 157.424804688 196.529296875 157.424804688 171.453125 c 4,12,13
 157.424804688 120.161132812 157.424804688 120.161132812 182.0234375 100.21484375 c 132,-1,14
 206.623046875 80.267578125 206.623046875 80.267578125 248.561523438 80.267578125 c 4,0,1
242.109375 554.434570312 m 4,15,16
 284.047851562 554.434570312 284.047851562 554.434570312 312.6796875 539.616210938 c 132,-1,17
 341.3125 524.798828125 341.3125 524.798828125 359.055664062 498.583007812 c 132,-1,18
 376.798828125 472.3671875 376.798828125 472.3671875 384.05859375 434.751953125 c 132,-1,19
 391.31640625 397.138671875 391.31640625 397.138671875 391.31640625 352.684570312 c 6,20,-1
 391.31640625 22.1376953125 l 5,21,22
 367.927734375 16.4384765625 367.927734375 16.4384765625 329.6171875 8.458984375 c 132,-1,23
 291.307617188 0.48046875 291.307617188 0.48046875 250.981445312 0.48046875 c 4,24,25
 220.333007812 0.48046875 220.333007812 0.48046875 191.298828125 7.888671875 c 132,-1,26
 162.264648438 15.2978515625 162.264648438 15.2978515625 139.681640625 34.1044921875 c 132,-1,27
 117.098632812 52.9111328125 117.098632812 52.9111328125 103.387695312 85.9677734375 c 132,-1,28
 89.6767578125 119.020507812 89.6767578125 119.020507812 89.6767578125 170.314453125 c 4,29,30
 89.6767578125 215.90625 89.6767578125 215.90625 103.791992188 247.251953125 c 132,-1,31
 117.905273438 278.596679688 117.905273438 278.596679688 140.084960938 297.973632812 c 132,-1,32
 162.264648438 317.349609375 162.264648438 317.349609375 190.895507812 325.899414062 c 132,-1,33
 219.52734375 334.448242188 219.52734375 334.448242188 248.561523438 334.448242188 c 4,34,35
 288.08203125 334.448242188 288.08203125 334.448242188 325.98828125 321.91015625 c 5,36,-1
 325.98828125 348.126953125 l 6,37,38
 325.98828125 372.061523438 325.98828125 372.061523438 322.359375 394.2890625 c 132,-1,39
 318.729492188 416.514648438 318.729492188 416.514648438 308.6484375 434.751953125 c 132,-1,40
 298.565429688 452.990234375 298.565429688 452.990234375 281.227539062 463.817382812 c 132,-1,41
 263.885742188 474.646484375 263.885742188 474.646484375 236.46484375 474.646484375 c 4,42,43
 201.783203125 474.646484375 201.783203125 474.646484375 175.974609375 467.807617188 c 132,-1,44
 150.166015625 460.96875 150.166015625 460.96875 136.455078125 454.12890625 c 5,45,-1
 128.390625 531.637695312 l 5,46,47
 142.100585938 540.756835938 142.100585938 540.756835938 173.959960938 547.595703125 c 132,-1,48
 205.815429688 554.434570312 205.815429688 554.434570312 242.109375 554.434570312 c 4,15,16
EndSplineSet
Validated: 1
Substitution2: "'case' Case-Sensitive Forms lookup 1 subtable" A
EndChar

StartChar: b
Encoding: 98 98 69
Width: 500
GlyphClass: 2
Flags: W
LayerCount: 2
Fore
SplineSet
159.27734375 228.052734375 m 5,0,1
 173.2734375 235.779296875 173.2734375 235.779296875 199.209960938 242.540039062 c 132,-1,2
 225.143554688 249.30078125 225.143554688 249.30078125 253.959960938 249.30078125 c 4,3,4
 286.071289062 249.30078125 286.071289062 249.30078125 308.711914062 241.57421875 c 132,-1,5
 331.354492188 233.84765625 331.354492188 233.84765625 345.762695312 220.325195312 c 132,-1,6
 360.169921875 206.802734375 360.169921875 206.802734375 367.168945312 187.967773438 c 132,-1,7
 374.16796875 169.1328125 374.16796875 169.1328125 374.16796875 147.881835938 c 4,8,9
 374.16796875 99.5869140625 374.16796875 99.5869140625 337.118164062 73.025390625 c 132,-1,10
 300.067382812 46.4638671875 300.067382812 46.4638671875 240.787109375 46.4638671875 c 4,11,12
 211.146484375 46.4638671875 211.146484375 46.4638671875 190.153320312 48.3935546875 c 132,-1,13
 169.15625 50.3251953125 169.15625 50.3251953125 159.27734375 52.2578125 c 5,14,-1
 159.27734375 228.052734375 l 5,0,1
159.27734375 534.244140625 m 5,15,-1
 78.5908203125 542.9375 l 5,16,-1
 78.5908203125 16.51953125 l 5,17,18
 104.936523438 12.6552734375 104.936523438 12.6552734375 145.280273438 6.859375 c 4,19,20
 186.44921875 2.0302734375 186.44921875 2.0302734375 240.787109375 2.0302734375 c 4,21,22
 290.1875 2.0302734375 290.1875 2.0302734375 329.708007812 12.6552734375 c 4,23,24
 370.05078125 23.28125 370.05078125 23.28125 397.220703125 41.6318359375 c 4,25,26
 426.0390625 60.951171875 426.0390625 60.951171875 441.681640625 87.5126953125 c 132,-1,27
 457.326171875 114.07421875 457.326171875 114.07421875 456.501953125 147.881835938 c 4,28,29
 457.326171875 179.755859375 457.326171875 179.755859375 443.330078125 206.802734375 c 4,30,31
 430.155273438 232.881835938 430.155273438 232.881835938 405.455078125 252.19921875 c 4,32,33
 379.930664062 271.517578125 379.930664062 271.517578125 344.528320312 282.142578125 c 260,34,35
 309.123046875 292.766601562 309.123046875 292.766601562 263.017578125 292.766601562 c 4,36,37
 227.614257812 292.766601562 227.614257812 292.766601562 200.033203125 287.455078125 c 132,-1,38
 172.450195312 282.142578125 172.450195312 282.142578125 159.27734375 276.34765625 c 5,39,-1
 159.27734375 534.244140625 l 5,15,-1
EndSplineSet
Validated: 41
Substitution2: "'case' Case-Sensitive Forms lookup 1 subtable" B
EndChar

StartChar: c
Encoding: 99 99 70
Width: 500
GlyphClass: 2
Flags: W
LayerCount: 2
Fore
SplineSet
409.509765625 593.799804688 m 4,0,1
 409.509765625 567.700195312 409.509765625 567.700195312 391.030273438 547.900390625 c 132,-1,2
 372.549804688 528.099609375 372.549804688 528.099609375 341.75 528.099609375 c 260,3,4
 310.950195312 528.099609375 310.950195312 528.099609375 292.084960938 547.900390625 c 132,-1,5
 273.219726562 567.700195312 273.219726562 567.700195312 273.219726562 593.799804688 c 4,6,7
 273.219726562 620.799804688 273.219726562 620.799804688 292.084960938 640.599609375 c 132,-1,8
 310.950195312 660.400390625 310.950195312 660.400390625 341.75 660.400390625 c 260,9,10
 372.549804688 660.400390625 372.549804688 660.400390625 391.030273438 640.599609375 c 132,-1,11
 409.509765625 620.799804688 409.509765625 620.799804688 409.509765625 593.799804688 c 4,0,1
103.8203125 221.200195312 m 0,12,13
 103.8203125 278.799804688 103.8203125 278.799804688 119.219726562 320.200195312 c 128,-1,14
 134.620117188 361.599609375 134.620117188 361.599609375 161.5703125 388.599609375 c 128,-1,15
 188.51953125 415.599609375 188.51953125 415.599609375 224.709960938 428.200195312 c 128,-1,16
 260.900390625 440.799804688 260.900390625 440.799804688 300.940429688 440.799804688 c 0,17,18
 327.120117188 440.799804688 327.120117188 440.799804688 353.299804688 437.200195312 c 128,-1,19
 379.48046875 433.599609375 379.48046875 433.599609375 408.740234375 422.799804688 c 1,20,-1
 393.33984375 358 l 1,21,22
 368.700195312 368.799804688 368.700195312 368.799804688 347.139648438 372.400390625 c 128,-1,23
 325.580078125 376 325.580078125 376 304.01953125 376 c 0,24,25
 276.299804688 376 276.299804688 376 251.66015625 367 c 128,-1,26
 227.01953125 358 227.01953125 358 209.309570312 340 c 128,-1,27
 191.599609375 322 191.599609375 322 180.8203125 292.299804688 c 128,-1,28
 170.040039062 262.599609375 170.040039062 262.599609375 170.040039062 221.200195312 c 0,29,30
 170.040039062 181.599609375 170.040039062 181.599609375 180.049804688 153.700195312 c 128,-1,31
 190.059570312 125.799804688 190.059570312 125.799804688 207.76953125 106.900390625 c 128,-1,32
 225.48046875 88 225.48046875 88 250.889648438 79 c 128,-1,33
 276.299804688 70 276.299804688 70 307.099609375 70 c 0,34,35
 331.740234375 70 331.740234375 70 354.83984375 73.599609375 c 128,-1,36
 377.940429688 77.2001953125 377.940429688 77.2001953125 404.120117188 88 c 1,37,-1
 413.360351562 25 l 1,38,39
 387.1796875 14.2001953125 387.1796875 14.2001953125 359.459960938 8.7998046875 c 128,-1,40
 331.740234375 3.400390625 331.740234375 3.400390625 299.400390625 3.400390625 c 0,41,42
 256.280273438 3.400390625 256.280273438 3.400390625 220.08984375 17.7998046875 c 128,-1,43
 183.900390625 32.2001953125 183.900390625 32.2001953125 158.490234375 59.2001953125 c 128,-1,44
 133.080078125 86.2001953125 133.080078125 86.2001953125 118.450195312 126.700195312 c 128,-1,45
 103.8203125 167.200195312 103.8203125 167.200195312 103.8203125 221.200195312 c 0,12,13
EndSplineSet
Validated: 524289
Substitution2: "'case' Case-Sensitive Forms lookup 1 subtable" C
EndChar

StartChar: d
Encoding: 100 100 71
Width: 500
GlyphClass: 2
Flags: W
LayerCount: 2
Fore
SplineSet
361.72265625 228.052734375 m 5,0,1
 347.7265625 235.779296875 347.7265625 235.779296875 321.790039062 242.540039062 c 132,-1,2
 295.856445312 249.30078125 295.856445312 249.30078125 267.040039062 249.30078125 c 4,3,4
 234.928710938 249.30078125 234.928710938 249.30078125 212.288085938 241.57421875 c 132,-1,5
 189.645507812 233.84765625 189.645507812 233.84765625 175.237304688 220.325195312 c 132,-1,6
 160.830078125 206.802734375 160.830078125 206.802734375 153.831054688 187.967773438 c 132,-1,7
 146.83203125 169.1328125 146.83203125 169.1328125 146.83203125 147.881835938 c 4,8,9
 146.83203125 99.5869140625 146.83203125 99.5869140625 183.881835938 73.025390625 c 132,-1,10
 220.932617188 46.4638671875 220.932617188 46.4638671875 280.212890625 46.4638671875 c 4,11,12
 309.853515625 46.4638671875 309.853515625 46.4638671875 330.846679688 48.3935546875 c 132,-1,13
 351.84375 50.3251953125 351.84375 50.3251953125 361.72265625 52.2578125 c 5,14,-1
 361.72265625 228.052734375 l 5,0,1
361.72265625 534.244140625 m 5,15,-1
 442.409179688 542.9375 l 5,16,-1
 442.409179688 16.51953125 l 5,17,18
 416.063476562 12.6552734375 416.063476562 12.6552734375 375.719726562 6.859375 c 4,19,20
 334.55078125 2.0302734375 334.55078125 2.0302734375 280.212890625 2.0302734375 c 4,21,22
 230.8125 2.0302734375 230.8125 2.0302734375 191.291992188 12.6552734375 c 4,23,24
 150.94921875 23.28125 150.94921875 23.28125 123.779296875 41.6318359375 c 4,25,26
 94.9609375 60.951171875 94.9609375 60.951171875 79.318359375 87.5126953125 c 132,-1,27
 63.673828125 114.07421875 63.673828125 114.07421875 64.498046875 147.881835938 c 4,28,29
 63.673828125 179.755859375 63.673828125 179.755859375 77.669921875 206.802734375 c 4,30,31
 90.8447265625 232.881835938 90.8447265625 232.881835938 115.544921875 252.19921875 c 4,32,33
 141.069335938 271.517578125 141.069335938 271.517578125 176.471679688 282.142578125 c 260,34,35
 211.876953125 292.766601562 211.876953125 292.766601562 257.982421875 292.766601562 c 4,36,37
 293.385742188 292.766601562 293.385742188 292.766601562 320.966796875 287.455078125 c 132,-1,38
 348.549804688 282.142578125 348.549804688 282.142578125 361.72265625 276.34765625 c 5,39,-1
 361.72265625 534.244140625 l 5,15,-1
EndSplineSet
Validated: 33
Substitution2: "'case' Case-Sensitive Forms lookup 1 subtable" D
EndChar

StartChar: e
Encoding: 101 101 72
Width: 500
GlyphClass: 2
Flags: W
LayerCount: 2
Fore
SplineSet
231.255859375 543.223632812 m 4,0,1
 302.265625 543.223632812 302.265625 543.223632812 340.79296875 478.08984375 c 132,-1,2
 379.319335938 412.95703125 379.319335938 412.95703125 379.319335938 280.46484375 c 6,3,-1
 379.319335938 248.176757812 l 5,4,-1
 128.516601562 248.176757812 l 5,5,6
 132.293945312 168.012695312 132.293945312 168.012695312 164.400390625 126.260742188 c 132,-1,7
 196.505859375 84.5087890625 196.505859375 84.5087890625 254.673828125 84.5087890625 c 4,8,9
 287.913085938 84.5087890625 287.913085938 84.5087890625 311.331054688 92.302734375 c 132,-1,10
 334.75 100.096679688 334.75 100.096679688 346.836914062 109.002929688 c 5,11,-1
 355.145507812 31.06640625 l 5,12,13
 343.814453125 22.1591796875 343.814453125 22.1591796875 314.352539062 12.1396484375 c 132,-1,14
 284.890625 2.1181640625 284.890625 2.1181640625 247.875 2.1181640625 c 4,15,16
 202.548828125 2.1181640625 202.548828125 2.1181640625 168.176757812 22.716796875 c 132,-1,17
 133.8046875 43.3154296875 133.8046875 43.3154296875 111.142578125 78.94140625 c 132,-1,18
 88.478515625 114.5703125 88.478515625 114.5703125 77.1474609375 164.116210938 c 132,-1,19
 65.8154296875 213.662109375 65.8154296875 213.662109375 65.8154296875 271.557617188 c 4,20,21
 65.8154296875 340.586914062 65.8154296875 340.586914062 80.1689453125 391.802734375 c 132,-1,22
 94.521484375 443.017578125 94.521484375 443.017578125 117.94140625 476.419921875 c 132,-1,23
 141.358398438 509.822265625 141.358398438 509.822265625 170.821289062 526.522460938 c 132,-1,24
 200.283203125 543.223632812 200.283203125 543.223632812 231.255859375 543.223632812 c 4,0,1
315.86328125 322.7734375 m 5,25,26
 315.86328125 388.462890625 315.86328125 388.462890625 292.444335938 426.874023438 c 132,-1,27
 269.026367188 465.286132812 269.026367188 465.286132812 230.5 465.286132812 c 4,28,29
 208.592773438 465.286132812 208.592773438 465.286132812 190.83984375 453.0390625 c 132,-1,30
 173.087890625 440.791015625 173.087890625 440.791015625 160.244140625 420.750976562 c 132,-1,31
 147.40234375 400.709960938 147.40234375 400.709960938 139.848632812 375.102539062 c 132,-1,32
 132.293945312 349.495117188 132.293945312 349.495117188 130.028320312 322.7734375 c 5,33,-1
 315.86328125 322.7734375 l 5,25,26
EndSplineSet
Validated: 524289
Substitution2: "'case' Case-Sensitive Forms lookup 1 subtable" E
EndChar

StartChar: f
Encoding: 102 102 73
Width: 500
GlyphClass: 2
Flags: W
LayerCount: 2
Fore
SplineSet
146.462890625 1.783203125 m 5,0,-1
 146.462890625 334.311523438 l 5,1,-1
 48.9306640625 334.311523438 l 5,2,-1
 48.9306640625 392.396484375 l 5,3,-1
 146.462890625 392.396484375 l 5,4,-1
 146.462890625 427.754882812 l 6,5,6
 146.462890625 473.213867188 146.462890625 473.213867188 161.389648438 503.098632812 c 132,-1,7
 176.319335938 532.984375 176.319335938 532.984375 200.704101562 551.50390625 c 132,-1,8
 225.087890625 570.02734375 225.087890625 570.02734375 257.432617188 577.6015625 c 132,-1,9
 289.776367188 585.177734375 289.776367188 585.177734375 325.60546875 585.177734375 c 260,10,11
 361.43359375 585.177734375 361.43359375 585.177734375 397.758789062 578.442382812 c 132,-1,12
 434.0859375 571.7109375 434.0859375 571.7109375 465.93359375 562.44921875 c 5,13,-1
 451.005859375 502.677734375 l 5,14,15
 429.110351562 511.939453125 429.110351562 511.939453125 396.267578125 518.673828125 c 132,-1,16
 363.424804688 525.407226562 363.424804688 525.407226562 329.5859375 525.407226562 c 4,17,18
 308.686523438 525.407226562 308.686523438 525.407226562 290.275390625 520.778320312 c 132,-1,19
 271.862304688 516.146484375 271.862304688 516.146484375 257.9296875 504.783203125 c 132,-1,20
 243.99609375 493.418945312 243.99609375 493.418945312 236.033203125 474.4765625 c 132,-1,21
 228.072265625 455.538085938 228.072265625 455.538085938 228.072265625 426.9140625 c 6,22,-1
 228.072265625 392.396484375 l 5,23,-1
 414.180664062 392.396484375 l 5,24,-1
 414.180664062 334.311523438 l 5,25,-1
 228.072265625 334.311523438 l 5,26,-1
 228.072265625 1.783203125 l 5,27,-1
 146.462890625 1.783203125 l 5,0,-1
EndSplineSet
Validated: 1
Substitution2: "'case' Case-Sensitive Forms lookup 1 subtable" F
EndChar

StartChar: g
Encoding: 103 103 74
Width: 500
GlyphClass: 2
Flags: W
LayerCount: 2
Fore
SplineSet
343.299804688 182.969726562 m 5,0,1
 329.440429688 176.063476562 329.440429688 176.063476562 300.73046875 168.294921875 c 132,-1,2
 272.01953125 160.526367188 272.01953125 160.526367188 234.400390625 160.526367188 c 4,3,4
 193.809570312 160.526367188 193.809570312 160.526367188 158.665039062 172.1796875 c 132,-1,5
 123.51953125 183.833007812 123.51953125 183.833007812 97.28515625 207.5703125 c 132,-1,6
 71.0498046875 231.30859375 71.0498046875 231.30859375 55.705078125 267.995117188 c 132,-1,7
 40.3603515625 304.680664062 40.3603515625 304.680664062 40.3603515625 354.74609375 c 4,8,9
 40.3603515625 398.76953125 40.3603515625 398.76953125 54.71484375 435.455078125 c 132,-1,10
 69.0703125 472.141601562 69.0703125 472.141601562 96.294921875 498.900390625 c 132,-1,11
 123.51953125 525.66015625 123.51953125 525.66015625 163.120117188 540.766601562 c 132,-1,12
 202.719726562 555.872070312 202.719726562 555.872070312 253.209960938 555.872070312 c 4,13,14
 312.610351562 555.872070312 312.610351562 555.872070312 354.684570312 548.53515625 c 132,-1,15
 396.759765625 541.198242188 396.759765625 541.198242188 425.469726562 534.291992188 c 5,16,-1
 425.469726562 176.926757812 l 6,17,18
 425.469726562 83.701171875 425.469726562 83.701171875 371.514648438 42.2685546875 c 132,-1,19
 317.559570312 0.8349609375 317.559570312 0.8349609375 208.66015625 0.8349609375 c 4,20,21
 164.110351562 0.8349609375 164.110351562 0.8349609375 127.974609375 6.876953125 c 132,-1,22
 91.83984375 12.919921875 91.83984375 12.919921875 64.1201171875 21.5517578125 c 5,23,-1
 78.9697265625 84.564453125 l 5,24,25
 104.709960938 75.0703125 104.709960938 75.0703125 137.875 69.02734375 c 132,-1,26
 171.040039062 62.9853515625 171.040039062 62.9853515625 210.639648438 62.9853515625 c 4,27,28
 281.919921875 62.9853515625 281.919921875 62.9853515625 312.610351562 88.017578125 c 132,-1,29
 343.299804688 113.049804688 343.299804688 113.049804688 343.299804688 169.158203125 c 6,30,-1
 343.299804688 182.969726562 l 5,0,1
343.299804688 483.36328125 m 5,31,32
 331.419921875 486.81640625 331.419921875 486.81640625 310.629882812 489.836914062 c 132,-1,33
 289.83984375 492.858398438 289.83984375 492.858398438 254.200195312 492.858398438 c 4,34,35
 190.83984375 492.858398438 190.83984375 492.858398438 157.674804688 454.877929688 c 132,-1,36
 124.509765625 416.896484375 124.509765625 416.896484375 124.509765625 353.8828125 c 4,37,38
 124.509765625 319.35546875 124.509765625 319.35546875 133.915039062 294.75390625 c 132,-1,39
 143.3203125 270.153320312 143.3203125 270.153320312 159.655273438 254.18359375 c 132,-1,40
 175.990234375 238.21484375 175.990234375 238.21484375 196.780273438 230.876953125 c 132,-1,41
 217.5703125 223.540039062 217.5703125 223.540039062 241.330078125 223.540039062 c 4,42,43
 272.01953125 223.540039062 272.01953125 223.540039062 299.245117188 231.30859375 c 132,-1,44
 326.469726562 239.078125 326.469726562 239.078125 343.299804688 249.436523438 c 5,45,-1
 343.299804688 483.36328125 l 5,31,32
EndSplineSet
Validated: 1
Substitution2: "'case' Case-Sensitive Forms lookup 1 subtable" G
EndChar

StartChar: h
Encoding: 104 104 75
Width: 500
GlyphClass: 2
Flags: W
LayerCount: 2
Fore
SplineSet
450.528320312 0.6103515625 m 5,0,-1
 358.524414062 0.6103515625 l 5,1,-1
 358.524414062 245.10546875 l 5,2,-1
 145.6953125 245.10546875 l 5,3,-1
 145.6953125 0.6103515625 l 5,4,-1
 53.69140625 0.6103515625 l 5,5,-1
 53.69140625 554.002929688 l 5,6,-1
 145.6953125 554.002929688 l 5,7,-1
 145.6953125 328.591796875 l 5,8,-1
 358.524414062 328.591796875 l 5,9,-1
 358.524414062 554.002929688 l 5,10,-1
 450.528320312 554.002929688 l 5,11,-1
 450.528320312 0.6103515625 l 5,0,-1
EndSplineSet
Validated: 1
Substitution2: "'case' Case-Sensitive Forms lookup 1 subtable" H
EndChar

StartChar: i
Encoding: 105 105 76
Width: 500
GlyphClass: 2
Flags: W
LayerCount: 2
Fore
SplineSet
209 549 m 4,0,1
 183 549 183 549 164 567 c 132,-1,2
 145 585 145 585 145 616 c 260,3,4
 145 647 145 647 164 665 c 132,-1,5
 183 683 183 683 209 683 c 4,6,7
 236 683 236 683 254.5 665 c 132,-1,8
 273 647 273 647 273 616 c 260,9,10
 273 585 273 585 254.5 567 c 132,-1,11
 236 549 236 549 209 549 c 4,0,1
188 408 m 5,12,-1
 54 408 l 5,13,-1
 54 477 l 5,14,-1
 270 477 l 5,15,-1
 270 192 l 6,16,17
 270 123 270 123 289 99.5 c 132,-1,18
 308 76 308 76 346 76 c 4,19,20
 375 76 375 76 399.5 83 c 132,-1,21
 424 90 424 90 438 98 c 5,22,-1
 450 28 l 5,23,24
 444 25 444 25 433 20.5 c 132,-1,25
 422 16 422 16 407.5 12 c 132,-1,26
 393 8 393 8 375.5 5 c 132,-1,27
 358 2 358 2 339 2 c 4,28,29
 295 2 295 2 266 14 c 132,-1,30
 237 26 237 26 219.5 50 c 132,-1,31
 202 74 202 74 195 109.5 c 132,-1,32
 188 145 188 145 188 192 c 6,33,-1
 188 408 l 5,12,-1
EndSplineSet
Validated: 1
Substitution2: "'case' Case-Sensitive Forms lookup 1 subtable" I
EndChar

StartChar: j
Encoding: 106 106 77
Width: 500
GlyphClass: 2
Flags: W
LayerCount: 2
Fore
SplineSet
109.631835938 491.670898438 m 5,0,-1
 109.631835938 551.412109375 l 5,1,-1
 404.309570312 551.412109375 l 5,2,-1
 404.309570312 154.008789062 l 6,3,4
 404.309570312 112.451171875 404.309570312 112.451171875 389.575195312 83.447265625 c 132,-1,5
 374.841796875 54.44140625 374.841796875 54.44140625 350.28515625 36.259765625 c 132,-1,6
 325.728515625 18.078125 325.728515625 18.078125 293.532226562 10.287109375 c 132,-1,7
 261.3359375 2.494140625 261.3359375 2.494140625 225.3203125 2.494140625 c 4,8,9
 183.846679688 2.494140625 183.846679688 2.494140625 141.827148438 9.4208984375 c 132,-1,10
 99.8095703125 16.34765625 99.8095703125 16.34765625 62.701171875 31.0654296875 c 5,11,-1
 89.986328125 91.6708984375 l 5,12,13
 117.270507812 81.2822265625 117.270507812 81.2822265625 150.55859375 73.9228515625 c 132,-1,14
 183.846679688 66.5634765625 183.846679688 66.5634765625 214.40625 66.5634765625 c 4,15,16
 258.061523438 66.5634765625 258.061523438 66.5634765625 286.438476562 84.3115234375 c 132,-1,17
 314.814453125 102.061523438 314.814453125 102.061523438 314.814453125 153.143554688 c 6,18,-1
 314.814453125 491.670898438 l 5,19,-1
 109.631835938 491.670898438 l 5,0,-1
EndSplineSet
Validated: 1
Substitution2: "'case' Case-Sensitive Forms lookup 1 subtable" J
EndChar

StartChar: k
Encoding: 107 107 78
Width: 500
GlyphClass: 2
Flags: W
LayerCount: 2
Fore
SplineSet
9 0 m 1,0,1
 32 89 32 89 54 167.5 c 128,-1,2
 76 246 76 246 98.5 320.5 c 128,-1,3
 121 395 121 395 146 468 c 128,-1,4
 171 541 171 541 201 619 c 1,5,-1
 303 619 l 1,6,7
 330 551 330 551 356.5 470 c 128,-1,8
 383 389 383 389 407.5 306.5 c 128,-1,9
 432 224 432 224 453 145 c 128,-1,10
 474 66 474 66 491 0 c 1,11,-1
 9 0 l 1,0,1
249 547 m 1,12,13
 239 520 239 520 222.5 472 c 128,-1,14
 206 424 206 424 187 361.5 c 128,-1,15
 168 299 168 299 148 224.5 c 128,-1,16
 128 150 128 150 110 70 c 1,17,-1
 387 70 l 1,18,19
 369 150 369 150 349 224.5 c 128,-1,20
 329 299 329 299 310 361.5 c 128,-1,21
 291 424 291 424 275 472 c 128,-1,22
 259 520 259 520 249 547 c 1,12,13
EndSplineSet
Validated: 1
Substitution2: "'case' Case-Sensitive Forms lookup 1 subtable" K
EndChar

StartChar: l
Encoding: 108 108 79
Width: 500
GlyphClass: 2
Flags: W
LayerCount: 2
Fore
SplineSet
355.272460938 2.23046875 m 4,0,1
 308.4765625 2.23046875 308.4765625 2.23046875 277.799804688 11.79296875 c 132,-1,2
 247.122070312 21.357421875 247.122070312 21.357421875 228.924804688 40.4853515625 c 132,-1,3
 210.725585938 59.61328125 210.725585938 59.61328125 203.447265625 87.8291015625 c 132,-1,4
 196.166992188 116.04296875 196.166992188 116.04296875 196.166992188 153.34375 c 6,5,-1
 196.166992188 501.478515625 l 5,6,-1
 53.7021484375 501.478515625 l 5,7,-1
 53.7021484375 556.951171875 l 5,8,-1
 282.479492188 556.951171875 l 5,9,-1
 282.479492188 153.34375 l 6,10,11
 282.479492188 124.650390625 282.479492188 124.650390625 287.158203125 107.434570312 c 132,-1,12
 291.837890625 90.2197265625 291.837890625 90.2197265625 302.237304688 79.69921875 c 132,-1,13
 312.63671875 69.1796875 312.63671875 69.1796875 327.194335938 64.8759765625 c 132,-1,14
 341.75390625 60.5712890625 341.75390625 60.5712890625 362.549804688 60.5712890625 c 4,15,16
 392.70703125 60.5712890625 392.70703125 60.5712890625 419.225585938 66.3095703125 c 132,-1,17
 445.743164062 72.048828125 445.743164062 72.048828125 461.340820312 78.7431640625 c 5,18,-1
 473.819335938 22.3134765625 l 5,19,20
 467.581054688 20.4013671875 467.581054688 20.4013671875 455.622070312 16.576171875 c 132,-1,21
 443.662109375 12.7509765625 443.662109375 12.7509765625 428.065429688 9.8798828125 c 132,-1,22
 412.465820312 7.01171875 412.465820312 7.01171875 393.748046875 4.62109375 c 132,-1,23
 375.029296875 2.23046875 375.029296875 2.23046875 355.272460938 2.23046875 c 4,0,1
EndSplineSet
Validated: 1
Substitution2: "'case' Case-Sensitive Forms lookup 1 subtable" L
EndChar

StartChar: m
Encoding: 109 109 80
Width: 500
GlyphClass: 2
Flags: W
LayerCount: 2
Fore
SplineSet
471.37890625 1.2041015625 m 5,0,1
 453.290039062 78.2998046875 453.290039062 78.2998046875 430.177734375 152.432617188 c 132,-1,2
 407.065429688 226.564453125 407.065429688 226.564453125 382.947265625 297.137695312 c 132,-1,3
 358.831054688 367.7109375 358.831054688 367.7109375 333.708007812 431.759765625 c 132,-1,4
 308.584960938 495.809570312 308.584960938 495.809570312 285.47265625 551.557617188 c 5,5,-1
 210.10546875 551.557617188 l 5,6,7
 162.874023438 440.0625 162.874023438 440.0625 114.639648438 297.731445312 c 132,-1,8
 66.404296875 155.397460938 66.404296875 155.397460938 29.22265625 1.2041015625 c 5,9,-1
 119.6640625 1.2041015625 l 5,10,11
 131.72265625 53.392578125 131.72265625 53.392578125 147.298828125 111.51171875 c 132,-1,12
 162.874023438 169.630859375 162.874023438 169.630859375 179.95703125 227.748046875 c 132,-1,13
 197.041015625 285.869140625 197.041015625 285.869140625 214.626953125 339.8359375 c 132,-1,14
 232.212890625 393.8046875 232.212890625 393.8046875 249.295898438 436.50390625 c 5,15,16
 266.37890625 393.8046875 266.37890625 393.8046875 284.969726562 339.8359375 c 132,-1,17
 303.560546875 285.869140625 303.560546875 285.869140625 321.6484375 227.748046875 c 132,-1,18
 339.736328125 169.630859375 339.736328125 169.630859375 356.317382812 111.51171875 c 132,-1,19
 372.8984375 53.392578125 372.8984375 53.392578125 384.958007812 1.2041015625 c 5,20,-1
 471.37890625 1.2041015625 l 5,0,1
EndSplineSet
Validated: 9
Substitution2: "'case' Case-Sensitive Forms lookup 1 subtable" M
EndChar

StartChar: n
Encoding: 110 110 81
Width: 500
GlyphClass: 2
Flags: W
LayerCount: 2
Fore
SplineSet
66.8212890625 525.721679688 m 1,0,1
 113.017578125 538.530273438 113.017578125 538.530273438 158.698242188 545.517578125 c 128,-1,2
 204.380859375 552.50390625 204.380859375 552.50390625 244.416015625 552.50390625 c 0,3,4
 339.884765625 552.50390625 339.884765625 552.50390625 388.645507812 496.606445312 c 128,-1,5
 437.407226562 440.709960938 437.407226562 440.709960938 437.407226562 317.267578125 c 2,6,-1
 437.407226562 0.5146484375 l 1,7,-1
 353.229492188 0.5146484375 l 1,8,-1
 353.229492188 299.798828125 l 2,9,10
 353.229492188 352.204101562 353.229492188 352.204101562 345.017578125 384.811523438 c 128,-1,11
 336.805664062 417.418945312 336.805664062 417.418945312 321.920898438 435.467773438 c 128,-1,12
 307.03515625 453.518554688 307.03515625 453.518554688 285.989257812 460.506835938 c 128,-1,13
 264.9453125 467.4921875 264.9453125 467.4921875 240.309570312 467.4921875 c 0,14,15
 219.77734375 467.4921875 219.77734375 467.4921875 196.680664062 464.58203125 c 128,-1,16
 173.583007812 461.669921875 173.583007812 461.669921875 152.025390625 457.012695312 c 1,17,-1
 152.025390625 0.5146484375 l 1,18,-1
 66.8212890625 0.5146484375 l 1,19,-1
 66.8212890625 525.721679688 l 1,0,1
EndSplineSet
Validated: 1
Substitution2: "'case' Case-Sensitive Forms lookup 1 subtable" N
EndChar

StartChar: o
Encoding: 111 111 82
Width: 500
GlyphClass: 2
Flags: W
LayerCount: 2
Fore
SplineSet
472.9375 277.943359375 m 260,0,1
 472.9375 216.014648438 472.9375 216.014648438 456.500976562 165.907226562 c 132,-1,2
 440.0625 115.80078125 440.0625 115.80078125 410.368164062 79.7685546875 c 132,-1,3
 380.674804688 43.73828125 380.674804688 43.73828125 339.315429688 24.03125 c 132,-1,4
 297.955078125 4.326171875 297.955078125 4.326171875 249.172851562 4.326171875 c 4,5,6
 201.450195312 4.326171875 201.450195312 4.326171875 160.62109375 24.03125 c 132,-1,7
 119.791992188 43.73828125 119.791992188 43.73828125 90.09765625 79.7685546875 c 132,-1,8
 60.4033203125 115.80078125 60.4033203125 115.80078125 43.9658203125 165.907226562 c 132,-1,9
 27.52734375 216.014648438 27.52734375 216.014648438 27.52734375 277.943359375 c 260,10,11
 27.52734375 339.873046875 27.52734375 339.873046875 43.9658203125 390.54296875 c 132,-1,12
 60.4033203125 441.211914062 60.4033203125 441.211914062 90.09765625 476.681640625 c 132,-1,13
 119.791992188 512.150390625 119.791992188 512.150390625 160.62109375 531.85546875 c 132,-1,14
 201.450195312 551.559570312 201.450195312 551.559570312 249.172851562 551.559570312 c 4,15,16
 297.955078125 551.559570312 297.955078125 551.559570312 339.315429688 531.85546875 c 132,-1,17
 380.674804688 512.150390625 380.674804688 512.150390625 410.368164062 476.681640625 c 132,-1,18
 440.0625 441.211914062 440.0625 441.211914062 456.500976562 390.54296875 c 132,-1,19
 472.9375 339.873046875 472.9375 339.873046875 472.9375 277.943359375 c 260,0,1
382.794921875 277.943359375 m 4,20,21
 382.794921875 366.896484375 382.794921875 366.896484375 346.73828125 418.129882812 c 132,-1,22
 310.681640625 469.362304688 310.681640625 469.362304688 249.172851562 469.362304688 c 4,23,24
 188.724609375 469.362304688 188.724609375 469.362304688 153.197265625 418.129882812 c 132,-1,25
 117.669921875 366.896484375 117.669921875 366.896484375 117.669921875 277.943359375 c 4,26,27
 117.669921875 190.116210938 117.669921875 190.116210938 153.197265625 138.8828125 c 132,-1,28
 188.724609375 87.650390625 188.724609375 87.650390625 249.172851562 87.650390625 c 4,29,30
 310.681640625 87.650390625 310.681640625 87.650390625 346.73828125 138.8828125 c 132,-1,31
 382.794921875 190.116210938 382.794921875 190.116210938 382.794921875 277.943359375 c 4,20,21
EndSplineSet
Validated: 1
Substitution2: "'case' Case-Sensitive Forms lookup 1 subtable" O
EndChar

StartChar: p
Encoding: 112 112 83
Width: 500
GlyphClass: 2
Flags: W
LayerCount: 2
Fore
SplineSet
145.25 269.690429688 m 5,0,1
 161.41015625 263.870117188 161.41015625 263.870117188 190.700195312 258.049804688 c 4,2,3
 221 252.23046875 221 252.23046875 257.360351562 253.200195312 c 4,4,5
 306.849609375 252.23046875 306.849609375 252.23046875 346.240234375 263.870117188 c 4,6,7
 384.620117188 274.540039062 384.620117188 274.540039062 411.889648438 292.969726562 c 4,8,9
 438.150390625 313.33984375 438.150390625 313.33984375 452.290039062 339.530273438 c 260,10,11
 466.4296875 365.719726562 466.4296875 365.719726562 466.4296875 397.73046875 c 4,12,13
 466.4296875 431.6796875 466.4296875 431.6796875 450.26953125 458.83984375 c 4,14,15
 433.099609375 486 433.099609375 486 402.799804688 504.4296875 c 4,16,17
 372.5 523.830078125 372.5 523.830078125 329.0703125 533.530273438 c 4,18,19
 286.650390625 543.23046875 286.650390625 543.23046875 233.120117188 543.23046875 c 4,20,21
 175.549804688 543.23046875 175.549804688 543.23046875 130.099609375 538.379882812 c 4,22,23
 85.66015625 534.5 85.66015625 534.5 58.3896484375 528.6796875 c 5,24,-1
 58.3896484375 12.6396484375 l 5,25,-1
 145.25 3.91015625 l 5,26,-1
 145.25 269.690429688 l 5,0,1
145.25 493.759765625 m 5,27,28
 165.450195312 496.669921875 165.450195312 496.669921875 185.14453125 498.125 c 132,-1,29
 204.83984375 499.580078125 204.83984375 499.580078125 223.01953125 499.580078125 c 4,30,31
 295.740234375 499.580078125 295.740234375 499.580078125 336.64453125 474.360351562 c 132,-1,32
 377.549804688 449.139648438 377.549804688 449.139648438 377.549804688 397.73046875 c 4,33,34
 377.549804688 376.389648438 377.549804688 376.389648438 369.974609375 357.474609375 c 132,-1,35
 362.400390625 338.559570312 362.400390625 338.559570312 346.745117188 325.46484375 c 132,-1,36
 331.08984375 312.370117188 331.08984375 312.370117188 306.344726562 304.610351562 c 132,-1,37
 281.599609375 296.849609375 281.599609375 296.849609375 247.259765625 296.849609375 c 4,38,39
 216.959960938 296.849609375 216.959960938 296.849609375 188.174804688 303.639648438 c 132,-1,40
 159.389648438 310.4296875 159.389648438 310.4296875 145.25 318.190429688 c 5,41,-1
 145.25 493.759765625 l 5,27,28
EndSplineSet
Validated: 41
Substitution2: "'case' Case-Sensitive Forms lookup 1 subtable" P
EndChar

StartChar: q
Encoding: 113 113 84
Width: 500
GlyphClass: 2
Flags: W
LayerCount: 2
Fore
SplineSet
375 331 m 5,0,1
 358 323 358 323 326.5 316 c 132,-1,2
 295 309 295 309 260 309 c 4,3,4
 221 309 221 309 193.5 317 c 132,-1,5
 166 325 166 325 148.5 339 c 132,-1,6
 131 353 131 353 122.5 372.5 c 132,-1,7
 114 392 114 392 114 414 c 4,8,9
 114 464 114 464 159 491.5 c 132,-1,10
 204 519 204 519 276 519 c 4,11,12
 312 519 312 519 337.5 517 c 132,-1,13
 363 515 363 515 375 513 c 5,14,-1
 375 331 l 5,0,1
375 14 m 5,15,-1
 473 5 l 5,16,-1
 473 550 l 5,17,18
 441 554 441 554 392 560 c 4,19,20
 342 565 342 565 276 565 c 4,21,22
 216 565 216 565 168 554 c 4,23,24
 119 543 119 543 86 524 c 4,25,26
 51 504 51 504 32 476.5 c 132,-1,27
 13 449 13 449 14 414 c 4,28,29
 13 381 13 381 30 353 c 4,30,31
 46 326 46 326 76 306 c 4,32,33
 107 286 107 286 150 275 c 260,34,35
 193 264 193 264 249 264 c 4,36,37
 292 264 292 264 325.5 269.5 c 132,-1,38
 359 275 359 275 375 281 c 5,39,-1
 375 14 l 5,15,-1
EndSplineSet
Validated: 41
Substitution2: "'case' Case-Sensitive Forms lookup 1 subtable" Q
EndChar

StartChar: r
Encoding: 114 114 85
Width: 500
GlyphClass: 2
Flags: W
LayerCount: 2
Fore
SplineSet
64.4599609375 0.5478515625 m 5,0,-1
 64.4599609375 514.115234375 l 5,1,2
 169.256835938 555.060546875 169.256835938 555.060546875 276.107421875 555.060546875 c 4,3,4
 308.986328125 555.060546875 308.986328125 555.060546875 338.78125 552.134765625 c 132,-1,5
 368.576171875 549.2109375 368.576171875 549.2109375 404.536132812 539.852539062 c 5,6,-1
 389.125 454.452148438 l 5,7,8
 356.248046875 464.982421875 356.248046875 464.982421875 331.075195312 467.90625 c 132,-1,9
 305.904296875 470.831054688 305.904296875 470.831054688 276.107421875 470.831054688 c 4,10,11
 213.435546875 470.831054688 213.435546875 470.831054688 148.708984375 450.943359375 c 5,12,-1
 148.708984375 0.5478515625 l 5,13,-1
 64.4599609375 0.5478515625 l 5,0,-1
EndSplineSet
Validated: 1
Substitution2: "'case' Case-Sensitive Forms lookup 1 subtable" R
EndChar

StartChar: s
Encoding: 115 115 86
Width: 500
GlyphClass: 2
Flags: W
LayerCount: 2
Fore
SplineSet
339.389648438 141.168945312 m 4,0,1
 339.389648438 168.776367188 339.389648438 168.776367188 320.735351562 186.4453125 c 132,-1,2
 302.080078125 204.114257812 302.080078125 204.114257812 274.325195312 217.366210938 c 132,-1,3
 246.5703125 230.618164062 246.5703125 230.618164062 213.809570312 243.317382812 c 132,-1,4
 181.049804688 256.016601562 181.049804688 256.016601562 153.294921875 274.790039062 c 132,-1,5
 125.540039062 293.5625 125.540039062 293.5625 106.884765625 321.169921875 c 132,-1,6
 88.23046875 348.77734375 88.23046875 348.77734375 88.23046875 392.94921875 c 4,7,8
 88.23046875 454.791015625 88.23046875 454.791015625 129.634765625 496.202148438 c 132,-1,9
 171.040039062 537.61328125 171.040039062 537.61328125 259.309570312 537.61328125 c 4,10,11
 293.889648438 537.61328125 293.889648438 537.61328125 330.745117188 531.5390625 c 132,-1,12
 367.599609375 525.465820312 367.599609375 525.465820312 393.990234375 515.52734375 c 5,13,-1
 380.33984375 433.80859375 l 5,14,15
 373.059570312 438.2265625 373.059570312 438.2265625 360.3203125 443.1953125 c 132,-1,16
 347.580078125 448.165039062 347.580078125 448.165039062 331.200195312 452.030273438 c 132,-1,17
 314.8203125 455.895507812 314.8203125 455.895507812 296.165039062 458.103515625 c 132,-1,18
 277.509765625 460.311523438 277.509765625 460.311523438 260.219726562 460.311523438 c 4,19,20
 161.940429688 460.311523438 161.940429688 460.311523438 161.940429688 395.158203125 c 4,21,22
 161.940429688 371.96875 161.940429688 371.96875 180.594726562 355.956054688 c 132,-1,23
 199.25 339.943359375 199.25 339.943359375 227.459960938 326.69140625 c 132,-1,24
 255.669921875 313.440429688 255.669921875 313.440429688 288.4296875 299.63671875 c 132,-1,25
 321.190429688 285.833007812 321.190429688 285.833007812 349.400390625 265.955078125 c 132,-1,26
 377.610351562 246.078125 377.610351562 246.078125 396.264648438 217.91796875 c 132,-1,27
 414.919921875 189.758789062 414.919921875 189.758789062 414.919921875 146.69140625 c 4,28,29
 414.919921875 77.1201171875 414.919921875 77.1201171875 370.330078125 39.021484375 c 132,-1,30
 325.740234375 0.923828125 325.740234375 0.923828125 229.280273438 0.923828125 c 4,31,32
 185.599609375 0.923828125 185.599609375 0.923828125 149.200195312 9.7578125 c 132,-1,33
 112.799804688 18.591796875 112.799804688 18.591796875 80.0400390625 36.2607421875 c 5,34,-1
 94.599609375 119.083007812 l 5,35,36
 126.450195312 101.4140625 126.450195312 101.4140625 161.485351562 89.8193359375 c 132,-1,37
 196.51953125 78.224609375 196.51953125 78.224609375 236.559570312 78.224609375 c 4,38,39
 339.389648438 78.224609375 339.389648438 78.224609375 339.389648438 141.168945312 c 4,0,1
EndSplineSet
Validated: 1
Substitution2: "'case' Case-Sensitive Forms lookup 1 subtable" S
EndChar

StartChar: t
Encoding: 116 116 87
Width: 500
GlyphClass: 2
Flags: W
LayerCount: 2
Fore
SplineSet
252.375 454.391601562 m 5,0,-1
 458.203125 454.391601562 l 5,1,-1
 458.203125 388.38671875 l 5,2,-1
 252.375 388.38671875 l 5,3,-1
 252.375 181.765625 l 6,4,5
 252 146 252 146 257.625 127.241210938 c 4,6,7
 263 106 263 106 274.952148438 93.2802734375 c 4,8,9
 287 80 287 80 305.931640625 75.5849609375 c 132,-1,10
 325 71 325 71 352.13671875 70.8017578125 c 4,11,12
 390 71 390 71 413.046875 76.5419921875 c 132,-1,13
 436 82 436 82 457.153320312 91.845703125 c 5,14,-1
 469.752929688 24.8857421875 l 5,15,16
 455 19 455 19 423.022460938 9.580078125 c 132,-1,17
 391 0 391 0 343.736328125 0.015625 c 4,18,19
 289 0 289 0 254.474609375 11.4951171875 c 132,-1,20
 220 23 220 23 200.392578125 45.9306640625 c 4,21,22
 185.311523438 64.2001953125 185.311523438 64.2001953125 173.61328125 102.84765625 c 4,23,24
 166.260742188 126.172851562 166.260742188 126.172851562 166.260742188 181.765625 c 6,25,-1
 166.260742188 388.38671875 l 5,26,-1
 63.3466796875 388.38671875 l 5,27,-1
 63.3466796875 454.391601562 l 5,28,-1
 166.260742188 454.391601562 l 5,29,-1
 166.260742188 589.745117188 l 5,30,-1
 252.375 603.13671875 l 5,31,-1
 252.375 454.391601562 l 5,0,-1
EndSplineSet
Validated: 33
Substitution2: "'case' Case-Sensitive Forms lookup 1 subtable" T
EndChar

StartChar: u
Encoding: 117 117 88
Width: 500
GlyphClass: 2
Flags: W
LayerCount: 2
Fore
SplineSet
431.9765625 26.0546875 m 5,0,1
 404.502929688 18.1953125 404.502929688 18.1953125 359.220703125 9.21484375 c 132,-1,2
 313.938476562 0.234375 313.938476562 0.234375 252.883789062 0.234375 c 4,3,4
 198.953125 0.234375 198.953125 0.234375 163.337890625 17.6337890625 c 132,-1,5
 127.723632812 35.0341796875 127.723632812 35.0341796875 105.336914062 67.0302734375 c 132,-1,6
 82.951171875 99.0244140625 82.951171875 99.0244140625 73.79296875 142.806640625 c 132,-1,7
 64.6337890625 186.58984375 64.6337890625 186.58984375 64.6337890625 239.3515625 c 6,8,-1
 64.6337890625 532.357421875 l 5,9,-1
 148.075195312 532.357421875 l 5,10,-1
 148.075195312 259.559570312 l 6,11,12
 148.075195312 163.014648438 148.075195312 163.014648438 174.0234375 122.6015625 c 132,-1,13
 199.971679688 82.1845703125 199.971679688 82.1845703125 261.025390625 82.1845703125 c 4,14,15
 274.25390625 82.1845703125 274.25390625 82.1845703125 287.991210938 83.30859375 c 132,-1,16
 301.728515625 84.431640625 301.728515625 84.431640625 313.938476562 86.1142578125 c 132,-1,17
 326.149414062 87.798828125 326.149414062 87.798828125 335.306640625 89.482421875 c 132,-1,18
 344.465820312 91.166015625 344.465820312 91.166015625 347.51953125 92.2890625 c 6,19,-1
 347.51953125 532.357421875 l 5,20,-1
 431.9765625 532.357421875 l 5,21,-1
 431.9765625 26.0546875 l 5,0,1
EndSplineSet
Validated: 1
Substitution2: "'case' Case-Sensitive Forms lookup 1 subtable" U
EndChar

StartChar: v
Encoding: 118 118 89
Width: 500
GlyphClass: 2
Flags: W
LayerCount: 2
Fore
SplineSet
471.37890625 550.795898438 m 5,0,1
 453.290039062 473.700195312 453.290039062 473.700195312 430.177734375 399.567382812 c 132,-1,2
 407.065429688 325.435546875 407.065429688 325.435546875 382.947265625 254.862304688 c 132,-1,3
 358.831054688 184.2890625 358.831054688 184.2890625 333.708007812 120.240234375 c 132,-1,4
 308.584960938 56.1904296875 308.584960938 56.1904296875 285.47265625 0.4423828125 c 5,5,-1
 210.10546875 0.4423828125 l 5,6,7
 162.874023438 111.9375 162.874023438 111.9375 114.639648438 254.268554688 c 132,-1,8
 66.404296875 396.602539062 66.404296875 396.602539062 29.22265625 550.795898438 c 5,9,-1
 119.6640625 550.795898438 l 5,10,11
 131.72265625 498.607421875 131.72265625 498.607421875 147.298828125 440.48828125 c 132,-1,12
 162.874023438 382.369140625 162.874023438 382.369140625 179.95703125 324.251953125 c 132,-1,13
 197.041015625 266.130859375 197.041015625 266.130859375 214.626953125 212.1640625 c 132,-1,14
 232.212890625 158.1953125 232.212890625 158.1953125 249.295898438 115.49609375 c 5,15,16
 266.37890625 158.1953125 266.37890625 158.1953125 284.969726562 212.1640625 c 132,-1,17
 303.560546875 266.130859375 303.560546875 266.130859375 321.6484375 324.251953125 c 132,-1,18
 339.736328125 382.369140625 339.736328125 382.369140625 356.317382812 440.48828125 c 132,-1,19
 372.8984375 498.607421875 372.8984375 498.607421875 384.958007812 550.795898438 c 5,20,-1
 471.37890625 550.795898438 l 5,0,1
EndSplineSet
Validated: 1
Substitution2: "'case' Case-Sensitive Forms lookup 1 subtable" V
EndChar

StartChar: w
Encoding: 119 119 90
Width: 500
GlyphClass: 2
Flags: W
LayerCount: 2
Fore
SplineSet
457.323242188 283.54296875 m 260,0,1
 457.323242188 207.596679688 457.323242188 207.596679688 437.828125 154.112304688 c 132,-1,2
 418.334960938 100.62890625 418.334960938 100.62890625 384.344726562 66.93359375 c 132,-1,3
 350.354492188 33.23828125 350.354492188 33.23828125 303.370117188 18.263671875 c 132,-1,4
 256.3828125 3.287109375 256.3828125 3.287109375 201.400390625 3.287109375 c 4,5,6
 145.416992188 3.287109375 145.416992188 3.287109375 87.4345703125 16.123046875 c 5,7,-1
 87.4345703125 550.96484375 l 5,8,9
 145.416992188 563.80078125 145.416992188 563.80078125 201.400390625 563.80078125 c 4,10,11
 256.3828125 563.80078125 256.3828125 563.80078125 303.370117188 548.825195312 c 132,-1,12
 350.354492188 533.849609375 350.354492188 533.849609375 384.344726562 499.619140625 c 132,-1,13
 418.334960938 465.389648438 418.334960938 465.389648438 437.828125 412.440429688 c 132,-1,14
 457.323242188 359.4921875 457.323242188 359.4921875 457.323242188 283.54296875 c 260,0,1
162.413085938 69.6064453125 m 5,15,16
 185.405273438 66.3984375 185.405273438 66.3984375 208.397460938 66.3984375 c 4,17,18
 249.385742188 66.3984375 249.385742188 66.3984375 281.875976562 78.1640625 c 132,-1,19
 314.366210938 89.931640625 314.366210938 89.931640625 335.859375 116.137695312 c 132,-1,20
 357.352539062 142.345703125 357.352539062 142.345703125 369.349609375 184.064453125 c 132,-1,21
 381.344726562 225.780273438 381.344726562 225.780273438 381.344726562 283.54296875 c 4,22,23
 381.344726562 395.859375 381.344726562 395.859375 336.859375 448.2734375 c 132,-1,24
 292.372070312 500.688476562 292.372070312 500.688476562 206.397460938 500.688476562 c 4,25,26
 194.40234375 500.688476562 194.40234375 500.688476562 182.905273438 500.688476562 c 132,-1,27
 171.409179688 500.688476562 171.409179688 500.688476562 162.413085938 497.479492188 c 5,28,-1
 162.413085938 69.6064453125 l 5,15,16
EndSplineSet
Validated: 1
Substitution2: "'case' Case-Sensitive Forms lookup 1 subtable" W
EndChar

StartChar: x
Encoding: 120 120 91
Width: 500
GlyphClass: 2
Flags: W
LayerCount: 2
Fore
SplineSet
466.477539062 555.022460938 m 5,0,-1
 466.477539062 473.083007812 l 5,1,-1
 295.733398438 473.083007812 l 5,2,-1
 295.733398438 2.8720703125 l 5,3,-1
 214.427734375 2.8720703125 l 5,4,-1
 214.427734375 473.083007812 l 5,5,-1
 44.701171875 473.083007812 l 5,6,-1
 44.701171875 555.022460938 l 5,7,-1
 466.477539062 555.022460938 l 5,0,-1
EndSplineSet
Validated: 1
Substitution2: "'case' Case-Sensitive Forms lookup 1 subtable" X
EndChar

StartChar: y
Encoding: 121 121 92
Width: 500
GlyphClass: 2
Flags: W
LayerCount: 2
Fore
SplineSet
51.802734375 72.45703125 m 5,0,1
 60.5283203125 67.9970703125 60.5283203125 67.9970703125 76.52734375 65.3203125 c 132,-1,2
 92.525390625 62.646484375 92.525390625 62.646484375 106.099609375 62.646484375 c 4,3,4
 153.610351562 62.646484375 153.610351562 62.646484375 180.274414062 81.82421875 c 132,-1,5
 206.938476562 101.002929688 206.938476562 101.002929688 229.239257812 144.712890625 c 5,6,7
 174.94140625 239.26953125 174.94140625 239.26953125 127.431640625 347.65234375 c 132,-1,8
 79.9208984375 456.037109375 79.9208984375 456.037109375 48.8935546875 563.973632812 c 5,9,-1
 136.157226562 563.973632812 l 5,10,11
 145.853515625 528.29296875 145.853515625 528.29296875 158.943359375 486.8125 c 132,-1,12
 172.033203125 445.333007812 172.033203125 445.333007812 188.515625 401.622070312 c 132,-1,13
 204.999023438 357.912109375 204.999023438 357.912109375 223.90625 313.754882812 c 132,-1,14
 242.813476562 269.598632812 242.813476562 269.598632812 264.145507812 229.45703125 c 5,15,16
 279.658203125 270.4921875 279.658203125 270.4921875 293.233398438 310.633789062 c 132,-1,17
 306.806640625 350.776367188 306.806640625 350.776367188 318.442382812 391.364257812 c 132,-1,18
 330.077148438 431.952148438 330.077148438 431.952148438 341.712890625 474.32421875 c 132,-1,19
 353.34765625 516.696289062 353.34765625 516.696289062 365.953125 563.973632812 c 5,20,-1
 449.337890625 563.973632812 l 5,21,22
 418.311523438 448.008789062 418.311523438 448.008789062 380.01171875 339.178710938 c 132,-1,23
 341.712890625 230.349609375 341.712890625 230.349609375 298.081054688 137.577148438 c 4,24,25
 281.59765625 101.893554688 281.59765625 101.893554688 262.690429688 76.025390625 c 132,-1,26
 243.783203125 50.1552734375 243.783203125 50.1552734375 221.482421875 33.2080078125 c 132,-1,27
 199.181640625 16.2587890625 199.181640625 16.2587890625 171.063476562 8.23046875 c 132,-1,28
 142.9453125 0.201171875 142.9453125 0.201171875 107.069335938 0.201171875 c 4,29,30
 88.646484375 0.201171875 88.646484375 0.201171875 66.8310546875 4.6611328125 c 132,-1,31
 45.0146484375 9.12109375 45.0146484375 9.12109375 37.2578125 12.6904296875 c 5,32,-1
 51.802734375 72.45703125 l 5,0,1
EndSplineSet
Validated: 1
Substitution2: "'case' Case-Sensitive Forms lookup 1 subtable" Y
EndChar

StartChar: z
Encoding: 122 122 93
Width: 500
GlyphClass: 2
Flags: W
LayerCount: 2
Fore
SplineSet
325 322 m 1,0,1
 276 258 276 258 223 194 c 128,-1,2
 170 130 170 130 128 70 c 1,3,-1
 447 70 l 1,4,-1
 447 0 l 1,5,-1
 40 0 l 1,6,-1
 40 65 l 1,7,8
 74 120 74 120 127 186 c 128,-1,9
 180 252 180 252 234 321 c 1,10,11
 182 390 182 390 132.5 454.5 c 128,-1,12
 83 519 83 519 53 564 c 1,13,-1
 53 619 l 1,14,-1
 446 619 l 1,15,-1
 446 549 l 1,16,-1
 154 549 l 1,17,18
 167 530 167 530 186 504 c 128,-1,19
 205 478 205 478 228 448 c 128,-1,20
 251 418 251 418 276 385.5 c 128,-1,21
 301 353 301 353 325 322 c 1,0,1
EndSplineSet
Validated: 1
Substitution2: "'case' Case-Sensitive Forms lookup 1 subtable" Z
EndChar

StartChar: braceleft
Encoding: 123 123 94
Width: 500
GlyphClass: 2
Flags: W
LayerCount: 2
Fore
SplineSet
79 299 m 1,0,-1
 119 299 l 2,1,2
 136 299 136 299 149 306.5 c 128,-1,3
 162 314 162 314 170.5 326.5 c 128,-1,4
 179 339 179 339 183.5 354.5 c 128,-1,5
 188 370 188 370 188 386 c 2,6,-1
 188 547 l 2,7,8
 188 584 188 584 195.5 612 c 128,-1,9
 203 640 203 640 221 659.5 c 128,-1,10
 239 679 239 679 269.5 689 c 128,-1,11
 300 699 300 699 346 699 c 2,12,-1
 427 699 l 1,13,-1
 427 634 l 1,14,-1
 342 634 l 2,15,16
 300 634 300 634 282.5 615 c 128,-1,17
 265 596 265 596 265 546 c 2,18,-1
 265 408 l 2,19,20
 265 341 265 341 245 309.5 c 128,-1,21
 225 278 225 278 199 267 c 1,22,23
 225 255 225 255 245 222 c 128,-1,24
 265 189 265 189 265 126 c 2,25,-1
 265 -12 l 2,26,27
 265 -62 265 -62 283 -81 c 128,-1,28
 301 -100 301 -100 343 -100 c 2,29,-1
 427 -100 l 1,30,-1
 427 -165 l 1,31,-1
 346 -165 l 2,32,33
 300 -165 300 -165 269.5 -155 c 128,-1,34
 239 -145 239 -145 221 -125.5 c 128,-1,35
 203 -106 203 -106 195.5 -78 c 128,-1,36
 188 -50 188 -50 188 -13 c 2,37,-1
 188 148 l 2,38,39
 188 163 188 163 183.5 178.5 c 128,-1,40
 179 194 179 194 170.5 206.5 c 128,-1,41
 162 219 162 219 149.5 227 c 128,-1,42
 137 235 137 235 120 235 c 2,43,-1
 79 235 l 1,44,-1
 79 299 l 1,0,-1
EndSplineSet
Validated: 1
EndChar

StartChar: bar
Encoding: 124 124 95
Width: 500
GlyphClass: 2
Flags: W
LayerCount: 2
Fore
SplineSet
212 699 m 1,0,-1
 289 699 l 1,1,-1
 289 -165 l 1,2,-1
 212 -165 l 1,3,-1
 212 699 l 1,0,-1
EndSplineSet
Validated: 1
EndChar

StartChar: braceright
Encoding: 125 125 96
Width: 500
GlyphClass: 2
Flags: W
LayerCount: 2
Fore
SplineSet
421 235 m 1,0,-1
 381 235 l 2,1,2
 364 235 364 235 351.5 227.5 c 128,-1,3
 339 220 339 220 330.5 207.5 c 128,-1,4
 322 195 322 195 317.5 179.5 c 128,-1,5
 313 164 313 164 313 148 c 2,6,-1
 313 -13 l 2,7,8
 313 -50 313 -50 305.5 -78 c 128,-1,9
 298 -106 298 -106 279.5 -125.5 c 128,-1,10
 261 -145 261 -145 230.5 -155 c 128,-1,11
 200 -165 200 -165 154 -165 c 2,12,-1
 73 -165 l 1,13,-1
 73 -100 l 1,14,-1
 158 -100 l 2,15,16
 200 -100 200 -100 217.5 -81 c 128,-1,17
 235 -62 235 -62 235 -12 c 2,18,-1
 235 126 l 2,19,20
 235 193 235 193 255 224.5 c 128,-1,21
 275 256 275 256 301 267 c 1,22,23
 275 279 275 279 255 312 c 128,-1,24
 235 345 235 345 235 408 c 2,25,-1
 235 546 l 2,26,27
 235 596 235 596 217 615 c 128,-1,28
 199 634 199 634 157 634 c 2,29,-1
 73 634 l 1,30,-1
 73 699 l 1,31,-1
 154 699 l 2,32,33
 200 699 200 699 230.5 689 c 128,-1,34
 261 679 261 679 279.5 659.5 c 128,-1,35
 298 640 298 640 305.5 612 c 128,-1,36
 313 584 313 584 313 547 c 2,37,-1
 313 386 l 2,38,39
 313 371 313 371 317 355.5 c 128,-1,40
 321 340 321 340 329.5 327.5 c 128,-1,41
 338 315 338 315 350.5 307 c 128,-1,42
 363 299 363 299 380 299 c 2,43,-1
 421 299 l 1,44,-1
 421 235 l 1,0,-1
EndSplineSet
Validated: 1
EndChar

StartChar: asciitilde
Encoding: 126 126 97
Width: 500
GlyphClass: 2
Flags: W
LayerCount: 2
Fore
SplineSet
463 314 m 1,0,1
 460 297 460 297 452.5 275 c 128,-1,2
 445 253 445 253 430.5 234 c 128,-1,3
 416 215 416 215 394 202 c 128,-1,4
 372 189 372 189 341 189 c 0,5,6
 314 189 314 189 291.5 199.5 c 128,-1,7
 269 210 269 210 248 223 c 0,8,9
 224 237 224 237 202 251 c 128,-1,10
 180 265 180 265 154 265 c 0,11,12
 140 265 140 265 130 258.5 c 128,-1,13
 120 252 120 252 113.5 242 c 128,-1,14
 107 232 107 232 102 219.5 c 128,-1,15
 97 207 97 207 94 196 c 1,16,-1
 37 212 l 1,17,18
 40 229 40 229 48 251 c 128,-1,19
 56 273 56 273 70 292 c 128,-1,20
 84 311 84 311 105.5 324 c 128,-1,21
 127 337 127 337 159 337 c 0,22,23
 186 337 186 337 208.5 326.5 c 128,-1,24
 231 316 231 316 252 303 c 0,25,26
 276 289 276 289 298.5 275 c 128,-1,27
 321 261 321 261 346 261 c 0,28,29
 360 261 360 261 370 267.5 c 128,-1,30
 380 274 380 274 386.5 284 c 128,-1,31
 393 294 393 294 398 306.5 c 128,-1,32
 403 319 403 319 406 330 c 1,33,-1
 463 314 l 1,0,1
EndSplineSet
Validated: 1
EndChar

StartChar: ezh
Encoding: 658 658 99
Width: 500
GlyphClass: 2
Flags: W
LayerCount: 2
Fore
SplineSet
154 196 m 1,0,1
 173 218 173 218 195 245.5 c 128,-1,2
 217 273 217 273 238 300 c 128,-1,3
 259 327 259 327 277.5 352 c 128,-1,4
 296 377 296 377 308 395 c 1,5,-1
 64 395 l 1,6,-1
 64 464 l 1,7,-1
 411 464 l 1,8,-1
 411 416 l 1,9,10
 399 396 399 396 380.5 369.5 c 128,-1,11
 362 343 362 343 340 314 c 128,-1,12
 318 285 318 285 294.5 256 c 128,-1,13
 271 227 271 227 249 202 c 1,14,15
 287 197 287 197 320 185.5 c 128,-1,16
 353 174 353 174 378 153.5 c 128,-1,17
 403 133 403 133 417 102.5 c 128,-1,18
 431 72 431 72 431 28 c 0,19,20
 431 -20 431 -20 414.5 -56.5 c 128,-1,21
 398 -93 398 -93 367 -117 c 128,-1,22
 336 -141 336 -141 293 -153 c 128,-1,23
 250 -165 250 -165 198 -165 c 0,24,25
 149 -165 149 -165 107.5 -157 c 128,-1,26
 66 -149 66 -149 44 -138 c 1,27,-1
 62 -68 l 1,28,29
 82 -78 82 -78 118.5 -86 c 128,-1,30
 155 -94 155 -94 197 -94 c 0,31,32
 270 -94 270 -94 308 -61.5 c 128,-1,33
 346 -29 346 -29 346 29 c 0,34,35
 346 64 346 64 331 86 c 128,-1,36
 316 108 316 108 291 120.5 c 128,-1,37
 266 133 266 133 234.5 137.5 c 128,-1,38
 203 142 203 142 169 142 c 2,39,-1
 154 142 l 1,40,-1
 154 196 l 1,0,1
EndSplineSet
Validated: 1
EndChar

StartChar: afii57929
Encoding: 700 700 100
Width: 500
GlyphClass: 2
Flags: W
LayerCount: 2
Fore
SplineSet
308 693 m 1,0,1
 308 683 308 683 308 676 c 128,-1,2
 308 669 308 669 307 661 c 0,3,4
 304 615 304 615 288.5 577.5 c 128,-1,5
 273 540 273 540 252 505 c 1,6,-1
 196 526 l 1,7,8
 213 561 213 561 220.5 592.5 c 128,-1,9
 228 624 228 624 228 659 c 0,10,11
 228 668 228 668 227.5 678 c 128,-1,12
 227 688 227 688 226 693 c 1,13,-1
 308 693 l 1,0,1
EndSplineSet
Validated: 1
EndChar

StartChar: circumflex
Encoding: 710 710 101
Width: 500
GlyphClass: 2
Flags: W
LayerCount: 2
Fore
SplineSet
250 687 m 1,0,-1
 371 559 l 1,1,-1
 337 520 l 1,2,-1
 250 598 l 1,3,-1
 163 520 l 1,4,-1
 129 559 l 1,5,-1
 250 687 l 1,0,-1
EndSplineSet
Validated: 1
EndChar

StartChar: caron
Encoding: 711 711 102
Width: 500
GlyphClass: 2
Flags: W
LayerCount: 2
Fore
SplineSet
129 651 m 1,0,-1
 163 690 l 1,1,-1
 250 612 l 1,2,-1
 337 690 l 1,3,-1
 371 651 l 1,4,-1
 250 523 l 1,5,-1
 129 651 l 1,0,-1
EndSplineSet
Validated: 1
EndChar

StartChar: firsttonechinese
Encoding: 713 713 103
Width: 500
GlyphClass: 2
Flags: W
LayerCount: 2
Fore
SplineSet
123 635 m 1,0,-1
 377 635 l 1,1,-1
 377 571 l 1,2,-1
 123 571 l 1,3,-1
 123 635 l 1,0,-1
EndSplineSet
Validated: 1
EndChar

StartChar: breve
Encoding: 728 728 104
Width: 500
GlyphClass: 2
Flags: W
LayerCount: 2
Fore
SplineSet
250 545 m 256,0,1
 225 545 225 545 203 553.5 c 128,-1,2
 181 562 181 562 164.5 577.5 c 128,-1,3
 148 593 148 593 139 616 c 128,-1,4
 130 639 130 639 131 669 c 1,5,-1
 185 669 l 1,6,7
 186 659 186 659 189 647.5 c 128,-1,8
 192 636 192 636 199.5 626.5 c 128,-1,9
 207 617 207 617 219 611 c 128,-1,10
 231 605 231 605 250 605 c 256,11,12
 269 605 269 605 281.5 611 c 128,-1,13
 294 617 294 617 301 626.5 c 128,-1,14
 308 636 308 636 311 647.5 c 128,-1,15
 314 659 314 659 315 669 c 1,16,-1
 369 669 l 1,17,18
 370 639 370 639 361 616 c 128,-1,19
 352 593 352 593 335.5 577.5 c 128,-1,20
 319 562 319 562 297 553.5 c 128,-1,21
 275 545 275 545 250 545 c 256,0,1
EndSplineSet
Validated: 33
EndChar

StartChar: dotaccent
Encoding: 729 729 105
Width: 500
GlyphClass: 2
Flags: W
LayerCount: 2
Fore
SplineSet
250 542 m 256,0,1
 225 542 225 542 207.5 558.5 c 128,-1,2
 190 575 190 575 190 603 c 0,3,4
 190 630 190 630 207.5 646.5 c 128,-1,5
 225 663 225 663 250 663 c 256,6,7
 275 663 275 663 292.5 646.5 c 128,-1,8
 310 630 310 630 310 603 c 0,9,10
 310 575 310 575 292.5 558.5 c 128,-1,11
 275 542 275 542 250 542 c 256,0,1
EndSplineSet
Validated: 1
EndChar

StartChar: ring
Encoding: 730 730 106
Width: 500
GlyphClass: 2
Flags: W
LayerCount: 2
Fore
SplineSet
342 605 m 0,0,1
 342 562 342 562 314.5 537.5 c 128,-1,2
 287 513 287 513 250 513 c 256,3,4
 213 513 213 513 185.5 537.5 c 128,-1,5
 158 562 158 562 158 605 c 0,6,7
 158 647 158 647 185.5 671.5 c 128,-1,8
 213 696 213 696 250 696 c 256,9,10
 287 696 287 696 314.5 671.5 c 128,-1,11
 342 647 342 647 342 605 c 0,0,1
297 605 m 0,12,13
 297 628 297 628 283.5 641 c 128,-1,14
 270 654 270 654 250 654 c 256,15,16
 230 654 230 654 216.5 641 c 128,-1,17
 203 628 203 628 203 605 c 0,18,19
 203 581 203 581 216.5 568 c 128,-1,20
 230 555 230 555 250 555 c 256,21,22
 270 555 270 555 283.5 568 c 128,-1,23
 297 581 297 581 297 605 c 0,12,13
EndSplineSet
Validated: 1
EndChar

StartChar: ogonek
Encoding: 731 731 107
Width: 500
GlyphClass: 2
Flags: W
LayerCount: 2
Fore
SplineSet
270 -167 m 0,0,1
 219 -167 219 -167 195 -149 c 128,-1,2
 171 -131 171 -131 171 -99 c 0,3,4
 171 -78 171 -78 182.5 -59.5 c 128,-1,5
 194 -41 194 -41 210 -24 c 0,6,7
 231 -1 231 -1 245 7 c 1,8,-1
 328 7 l 1,9,10
 317 -1 317 -1 304.5 -11 c 128,-1,11
 292 -21 292 -21 279 -35 c 256,12,13
 266 -49 266 -49 258 -59.5 c 128,-1,14
 250 -70 250 -70 250 -83 c 0,15,16
 250 -109 250 -109 286 -109 c 0,17,18
 292 -109 292 -109 302 -107.5 c 128,-1,19
 312 -106 312 -106 322 -103 c 1,20,-1
 329 -157 l 1,21,22
 306 -167 306 -167 270 -167 c 0,0,1
EndSplineSet
Validated: 1
EndChar

StartChar: tilde
Encoding: 732 732 108
Width: 500
GlyphClass: 2
Flags: W
LayerCount: 2
Fore
SplineSet
388 635 m 1,0,1
 385 624 385 624 377.5 610 c 128,-1,2
 370 596 370 596 359 584 c 128,-1,3
 348 572 348 572 333 563.5 c 128,-1,4
 318 555 318 555 299 555 c 0,5,6
 286 555 286 555 268.5 562 c 128,-1,7
 251 569 251 569 240 574 c 0,8,9
 214 588 214 588 198 588 c 0,10,11
 185 588 185 588 173 575 c 128,-1,12
 161 562 161 562 155 548 c 1,13,-1
 112 571 l 1,14,15
 115 582 115 582 122.5 596 c 128,-1,16
 130 610 130 610 141 622 c 128,-1,17
 152 634 152 634 167 642.5 c 128,-1,18
 182 651 182 651 200 651 c 0,19,20
 213 651 213 651 230.5 643.5 c 128,-1,21
 248 636 248 636 259 631 c 0,22,23
 285 617 285 617 301 617 c 0,24,25
 314 617 314 617 326.5 630 c 128,-1,26
 339 643 339 643 345 657 c 1,27,-1
 388 635 l 1,0,1
EndSplineSet
Validated: 1
EndChar

StartChar: hungarumlaut
Encoding: 733 733 109
Width: 500
GlyphClass: 2
Flags: W
LayerCount: 2
Fore
SplineSet
253 643 m 1,0,-1
 143 518 l 1,1,-1
 100 550 l 1,2,-1
 203 693 l 1,3,-1
 253 643 l 1,0,-1
400 643 m 1,4,-1
 290 518 l 1,5,-1
 247 550 l 1,6,-1
 350 693 l 1,7,-1
 400 643 l 1,4,-1
EndSplineSet
Validated: 1
EndChar

StartChar: breveinvertedcmb
Encoding: 785 785 110
Width: 500
GlyphClass: 2
Flags: W
LayerCount: 2
Fore
SplineSet
250 669 m 256,0,1
 275 669 275 669 297 660.5 c 128,-1,2
 319 652 319 652 335.5 636 c 128,-1,3
 352 620 352 620 361 597 c 128,-1,4
 370 574 370 574 369 545 c 1,5,-1
 315 545 l 1,6,7
 314 555 314 555 311 566.5 c 128,-1,8
 308 578 308 578 301 587.5 c 128,-1,9
 294 597 294 597 281.5 603 c 128,-1,10
 269 609 269 609 250 609 c 256,11,12
 231 609 231 609 219 603 c 128,-1,13
 207 597 207 597 199.5 587.5 c 128,-1,14
 192 578 192 578 189 566.5 c 128,-1,15
 186 555 186 555 185 545 c 1,16,-1
 131 545 l 1,17,18
 130 574 130 574 139 597 c 128,-1,19
 148 620 148 620 164.5 636 c 128,-1,20
 181 652 181 652 203 660.5 c 128,-1,21
 225 669 225 669 250 669 c 256,0,1
EndSplineSet
Validated: 33
EndChar
